SplineFontDB: 3.2
FontName: TheGuidingThread
FullName: The Guiding Thread
FamilyName: Guiding
Weight: Light
Copyright: Copyright (c) 2025, sea5kg
UComments: "2025-11-16: Created with FontForge (http://fontforge.org)"
Version: 001.000
ItalicAngle: 0
UnderlinePosition: 0
UnderlineWidth: 0
Ascent: 1000
Descent: 0
InvalidEm: 0
LayerCount: 2
Layer: 0 0 "+BBcEMAQ0BD0EOAQ5 +BD8EOwQwBD0A" 1
Layer: 1 0 "+BB8ENQRABDUENAQ9BDgEOQAA +BD8EOwQwBD0A" 0
XUID: [1021 287 1418727460 5396438]
StyleMap: 0x0000
FSType: 0
OS2Version: 0
OS2_WeightWidthSlopeOnly: 0
OS2_UseTypoMetrics: 1
CreationTime: 1763275187
ModificationTime: 1764488826
PfmFamily: 17
TTFWeight: 200
TTFWidth: 5
LineGap: 0
VLineGap: 0
OS2TypoAscent: 0
OS2TypoAOffset: 1
OS2TypoDescent: 0
OS2TypoDOffset: 1
OS2TypoLinegap: 0
OS2WinAscent: 0
OS2WinAOffset: 1
OS2WinDescent: 0
OS2WinDOffset: 1
HheadAscent: 0
HheadAOffset: 1
HheadDescent: 0
HheadDOffset: 1
OS2Vendor: 'PfEd'
MarkAttachClasses: 1
DEI: 91125
LangName: 1033
Encoding: UnicodeFull
UnicodeInterp: none
NameList: AGL For New Fonts
DisplaySize: -48
AntiAlias: 1
FitToEm: 0
WinInfo: 0 34 14
BeginPrivate: 0
EndPrivate
BeginChars: 1114112 59

StartChar: G
Encoding: 71 71 0
Width: 840
Flags: HW
LayerCount: 2
Fore
SplineSet
399 730 m 1
 532 730 l 1
 528 715 l 1
 580 715 l 1
 578 695 l 1
 478 697 l 1
 485 631 l 1
 578 635 l 1
 576 589 l 1
 580 587 l 1
 580 573 l 1
 576 572 l 1
 503 592 l 1
 438 593 l 1
 372 579 l 1
 336 546 l 1
 201 544 l 1
 201 559 l 1
 198 622 l 1
 183 630 l 1
 250 676 l 1
 304 699 l 1
 300 634 l 1
 374 637 l 1
 380 721 l 1
 399 719 l 1
 399 730 l 1
113 536 m 1
 115 313 l 1
 54 317 l 1
 54 317 51 359 51 367 c 0
 51 374 61 433 61 433 c 1
 87 505 l 1
 102 535 l 1
 113 536 l 1
435 392 m 1
 745 389 l 1
 743 87 l 1
 663 83 l 1
 661 18 l 1
 620 -1 l 1
 564 -12 l 1
 559 86 l 1
 476 85 l 1
 476 -20 l 1
 382 -18 l 1
 381 85 l 1
 296 91 l 1
 288 6 l 1
 288 6 244 29 241 30 c 0
 238 31 187 60 187 60 c 1
 160 86 l 1
 193 90 l 1
 196 165 l 1
 103 168 l 1
 82 203 l 1
 74 242 l 1
 197 241 l 1
 201 319 l 1
 246 318 l 1
 248 300 l 1
 248 300 272 222 272 218 c 0
 273 214 306 165 306 165 c 1
 390 121 l 1
 390 121 474 111 478 111 c 0
 483 111 544 113 544 113 c 1
 581 129 l 1
 582 158 l 1
 653 164 l 1
 658 315 l 1
 572 317 l 1
 570 267 l 1
 476 267 l 1
 471 323 l 1
 428 321 l 1
 435 392 l 1
516 -96 m 1
 735 -52 l 1
 736 -93 l 1
 722 -156 l 1
 562 -172 l 1
 698 -131 l 1
 703 -99 l 1
 517 -140 l 1
 432 -142 l 1
 378 -152 l 1
 497 -173 l 1
 347 -191 l 1
 205 -169 l 1
 331 -151 l 1
 312 -118 l 1
 201 -53 l 1
 351 -91 l 1
 516 -96 l 1
EndSplineSet
EndChar

StartChar: u
Encoding: 117 117 1
Width: 612
Flags: HW
LayerCount: 2
Fore
SplineSet
83 459 m 1
 83 507 l 1
 219 502 l 1
 223 245 l 1
 188 244 l 1
 186 314 l 1
 111 316 l 1
 93 315 l 1
 93 245 l 1
 110 246 l 1
 111 176 l 1
 224 175 l 1
 238 148 l 1
 252 129 l 1
 290 124 l 1
 290 124 317 124 322 124 c 0
 327 125 367 147 367 147 c 1
 392 176 l 1
 403 176 l 1
 402 243 l 1
 400 505 l 1
 414 504 l 1
 412 382 l 1
 486 383 l 1
 487 450 l 1
 528 450 l 1
 527 494 l 1
 465 495 l 1
 466 504 l 1
 544 504 l 1
 544 316 l 1
 541 206 l 1
 527 206 l 1
 527 314 l 1
 414 312 l 1
 412 175 l 1
 543 174 l 1
 542 25 l 1
 426 27 l 1
 426 49 l 1
 434 50 l 1
 435 35 l 1
 528 37 l 1
 529 107 l 1
 408 109 l 1
 391 68 l 1
 347 37 l 1
 285 13 l 1
 205 14 l 1
 159 33 l 1
 163 37 l 1
 210 20 l 1
 284 19 l 1
 348 46 l 1
 385 75 l 1
 399 108 l 1
 100 109 l 1
 81 165 l 1
 85 322 l 1
 84 383 l 1
 84 383 185 380 185 383 c 0
 185 386 188 456 188 456 c 1
 83 459 l 1
EndSplineSet
EndChar

StartChar: i
Encoding: 105 105 2
Width: 370
Flags: HW
LayerCount: 2
Fore
SplineSet
247 113 m 1
 238 112 l 1
 117 113 l 1
 116 441 l 1
 143 441 l 1
 147 373 l 1
 210 369 l 1
 212 490 l 1
 249 486 l 1
 247 307 l 1
 145 310 l 1
 145 310 144 184 144 181 c 0
 144 178 248 175 248 175 c 1
 247 113 l 1
144 637 m 1
 144 688 l 1
 157 694 l 1
 191 694 l 1
 219 693 l 1
 233 682 l 1
 250 664 l 1
 256 650 l 1
 255 638 l 1
 256 604 l 1
 238 582 l 1
 201 561 l 1
 156 568 l 1
 156 568 131 578 131 579 c 0
 130 581 119 597 119 597 c 1
 119 597 124 599 124 597 c 0
 124 596 135 583 135 583 c 1
 150 576 l 1
 170 568 l 1
 193 566 l 1
 208 567 l 1
 226 579 l 1
 243 593 l 1
 250 609 l 1
 250 609 256 637 251 637 c 0
 246 637 144 637 144 637 c 1
 144 637 l 1
117 25 m 1
 117 34 l 1
 245 33 l 1
 245 23 l 1
 117 25 l 1
EndSplineSet
EndChar

StartChar: d
Encoding: 100 100 3
Width: 616
Flags: HW
LayerCount: 2
Fore
SplineSet
524 700 m 1
 524 700 523 580 523 578 c 0
 523 576 489 579 489 579 c 1
 486 699 l 1
 524 700 l 1
393 699 m 1
 419 698 l 1
 418 440 l 1
 487 438 l 1
 488 370 l 1
 522 367 l 1
 522 302 l 1
 488 301 l 1
 488 301 489 232 489 231 c 0
 489 229 393 231 393 231 c 1
 394 299 l 1
 418 299 l 1
 419 369 l 1
 381 368 l 1
 375 377 l 1
 348 389 l 1
 350 488 l 1
 396 456 l 1
 397 482 l 1
 393 483 l 1
 393 699 l 1
265 503 m 1
 259 386 l 1
 144 390 l 1
 134 293 l 1
 74 293 l 1
 76 309 l 1
 87 355 l 1
 106 401 l 1
 150 455 l 1
 146 411 l 1
 203 413 l 1
 209 490 l 1
 231 498 l 1
 265 503 l 1
140 230 m 1
 206 229 l 1
 206 229 206 220 206 219 c 0
 206 218 211 197 211 197 c 1
 215 178 l 1
 220 162 l 1
 208 163 l 1
 210 21 l 1
 168 22 l 1
 136 48 l 1
 105 88 l 1
 140 90 l 1
 138 176 l 1
 140 230 l 1
392 161 m 1
 522 159 l 1
 521 91 l 1
 282 91 l 1
 280 104 l 2
 280 104 301 103 302 103 c 0
 304 103 326 108 326 108 c 1
 361 121 l 1
 382 140 l 1
 393 149 l 1
 392 161 l 1
524 21 m 0
 525 21 525 9 525 9 c 1
 489 9 l 1
 486 21 l 1
 486 21 522 20 524 21 c 0
 524 21 l 0
EndSplineSet
EndChar

StartChar: n
Encoding: 110 110 4
Width: 682
Flags: HW
LayerCount: 2
Fore
SplineSet
358 652 m 1
 402 652 l 1
 403 518 l 1
 320 518 l 1
 320 542 l 1
 280 543 l 1
 280 566 l 1
 321 602 l 1
 330 635 l 1
 358 652 l 1
207 605 m 1
 217 571 l 1
 228 559 l 1
 229 327 l 1
 160 323 l 1
 160 514 l 1
 83 514 l 1
 84 605 l 1
 207 605 l 1
80 231 m 1
 155 231 l 1
 156 141 l 1
 233 140 l 1
 232 50 l 1
 154 52 l 1
 158 29 l 1
 82 29 l 1
 80 231 l 1
435 48 m 1
 597 45 l 1
 597 25 l 1
 436 22 l 1
 435 48 l 1
438 143 m 1
 434 231 l 1
 480 228 l 1
 482 422 l 1
 439 430 l 1
 417 486 l 1
 403 518 l 1
 481 513 l 1
 481 609 l 1
 535 596 l 1
 562 566 l 1
 571 535 l 1
 564 230 l 1
 592 230 l 1
 591 139 l 1
 438 143 l 1
EndSplineSet
EndChar

StartChar: o
Encoding: 111 111 5
Width: 558
Flags: HW
LayerCount: 2
Fore
SplineSet
246 526 m 1
 263 526 l 1
 297 524 l 1
 313 518 l 1
 318 487 l 1
 375 487 l 1
 390 481 l 1
 409 461 l 1
 432 432 l 1
 444 413 l 1
 382 414 l 1
 378 257 l 1
 361 256 l 1
 361 267 l 1
 363 295 l 1
 352 330 l 1
 352 330 335 378 334 385 c 0
 333 392 313 415 313 415 c 1
 291 420 l 1
 259 416 l 1
 227 421 l 1
 179 419 l 1
 179 377 l 1
 168 344 l 1
 162 296 l 1
 162 296 161 219 159 215 c 0
 157 211 168 168 168 168 c 1
 168 168 196 134 198 131 c 0
 200 128 224 109 224 109 c 1
 248 107 l 1
 248 -3 l 1
 232 -1 l 1
 181 13 l 1
 144 34 l 1
 177 32 l 1
 176 108 l 1
 71 107 l 1
 61 132 l 1
 50 162 l 1
 45 184 l 1
 115 184 l 1
 117 259 l 1
 115 337 l 1
 43 334 l 1
 52 359 l 1
 55 386 l 1
 70 411 l 1
 114 407 l 1
 116 467 l 1
 125 477 l 1
 139 489 l 1
 247 488 l 1
 246 526 l 1
483 253 m 1
 481 225 l 1
 473 201 l 1
 405 201 l 1
 401 57 l 1
 389 44 l 1
 361 24 l 1
 332 18 l 1
 334 153 l 1
 335 149 l 1
 348 178 l 1
 356 220 l 1
 483 253 l 1
EndSplineSet
EndChar

StartChar: T
Encoding: 84 84 6
Width: 706
Flags: HW
LayerCount: 2
Fore
SplineSet
258 65 m 1
 283 64 l 1
 280 222 l 1
 264 224 l 1
 262 635 l 1
 79 641 l 1
 79 718 l 1
 120 712 l 1
 125 753 l 1
 207 751 l 1
 208 721 l 1
 357 723 l 1
 359 752 l 1
 434 752 l 1
 428 719 l 1
 592 721 l 1
 597 636 l 1
 288 635 l 1
 284 306 l 1
 360 308 l 1
 361 220 l 1
 411 217 l 1
 404 139 l 1
 361 136 l 1
 358 61 l 1
 404 65 l 1
 409 35 l 1
 260 35 l 1
 258 65 l 1
410 -31 m 1
 369 -61 l 1
 412 -81 l 1
 382 -110 l 1
 405 -131 l 1
 470 -152 l 1
 494 -151 l 1
 494 -129 l 1
 526 -28 l 1
 529 -75 l 1
 511 -139 l 1
 527 -158 l 1
 153 -164 l 1
 313 -139 l 1
 219 -123 l 1
 296 -86 l 1
 244 -81 l 1
 282 -56 l 1
 251 -49 l 1
 251 -30 l 1
 410 -31 l 1
EndSplineSet
EndChar

StartChar: h
Encoding: 104 104 7
Width: 554
Flags: HW
LayerCount: 2
Fore
SplineSet
204.337890625 757.533203125 m 5
 200.9609375 560.064453125 l 5
 109.822265625 561.751953125 l 5
 114.884765625 495.9296875 l 5
 229.40625 497.255859375 l 5
 227.71875 520.8828125 l 5
 298.603515625 547.888671875 l 5
 298.48828125 541.224609375 l 5
 356.056640625 558.341796875 l 5
 356.013671875 561.478515625 l 5
 389.76953125 551.3515625 l 5
 421.8359375 532.787109375 l 5
 423.525390625 424.76953125 l 5
 470.78125 423.08203125 l 5
 472.37890625 149.1015625 l 5
 381.63671875 146.3515625 l 5
 383.814453125 90.818359375 l 5
 477.982421875 93.509765625 l 5
 476.294921875 63.12890625 l 5
 359.837890625 61.44140625 l 5
 359.837890625 90.1328125 l 5
 372.181640625 90.486328125 l 5
 370.498046875 146.013671875 l 5
 360.986328125 145.724609375 l 5
 357.611328125 221.673828125 l 5
 426.2578125 222.53125 l 5
 419.5078125 355.865234375 l 5
 358.748046875 359.240234375 l 5
 357.505859375 451.12890625 l 5
 296.96875 453.419921875 l 5
 296.916015625 450.380859375 l 5
 261.47265625 440.25390625 l 5
 234.46875 421.6875 l 5
 217.68359375 422.25390625 l 5
 199.84375 221.83203125 l 5
 207.919921875 222.04296875 l 5
 206.232421875 146.09375 l 5
 203.466796875 146.208984375 l 5
 200.947265625 88.890625 l 5
 209.42578125 84.8154296875 204.080078125 71.375 204.080078125 71.375 c 5
 91 68 l 5
 82.5625 86.564453125 l 5
 82.5625 86.564453125 152.900390625 90.044921875 183.826171875 90.1953125 c 5
 185.84375 146.9453125 l 5
 87.3125 151.064453125 l 5
 78.8359375 218.66796875 l 5
 89.947265625 218.958984375 l 5
 89.767578125 426.568359375 l 5
 84.30859375 426.751953125 l 5
 85.5625 634.0234375 l 5
 163.830078125 636.685546875 l 5
 166.703125 738.044921875 l 5
 91.150390625 744.419921875 l 5
 92.837890625 714.041015625 l 5
 81.8671875 714.884765625 l 5
 81.8671875 755.390625 l 5
 167.130859375 753.126953125 l 5
 167.20703125 755.845703125 l 5
 204.337890625 757.533203125 l 5
356.240234375 544.775390625 m 5
 298.4609375 539.607421875 l 5
 296.982421875 454.25390625 l 5
 357.38671875 459.869140625 l 5
 356.240234375 544.775390625 l 5
111.59765625 425.83203125 m 5
 108.798828125 219.451171875 l 5
 191.408203125 221.611328125 l 5
 211.46484375 422.462890625 l 5
 111.59765625 425.83203125 l 5
EndSplineSet
EndChar

StartChar: e
Encoding: 101 101 8
Width: 560
Flags: HW
LayerCount: 2
Fore
SplineSet
307 524 m 1
 364 502 l 1
 400 481 l 1
 423 464 l 1
 371 462 l 1
 373 394 l 1
 453 389 l 1
 467 355 l 1
 470 294 l 1
 465 247 l 1
 441 240 l 1
 427 248 l 1
 203 250 l 1
 203 263 l 1
 432 263 l 1
 432 326 l 1
 364 326 l 1
 361 353 l 1
 353 381 l 1
 333 408 l 1
 304 433 l 1
 307 524 l 1
119 441 m 1
 122 396 l 1
 218 390 l 1
 206 376 l 1
 193 348 l 1
 187 328 l 1
 123 327 l 1
 127 262 l 1
 70 265 l 1
 79 304 l 1
 90 378 l 1
 119 441 l 1
80 197 m 1
 205 194 l 1
 208 180 l 1
 244 145 l 1
 306 130 l 1
 377 146 l 1
 413 167 l 1
 433 109 l 1
 451 72 l 1
 426 77 l 1
 424 126 l 1
 315 123 l 1
 321 33 l 1
 228 35 l 1
 186 62 l 1
 247 51 l 1
 248 122 l 1
 126 129 l 1
 113 121 l 1
 93 161 l 1
 80 197 l 1
EndSplineSet
EndChar

StartChar: r
Encoding: 114 114 9
Width: 474
Flags: HW
LayerCount: 2
Fore
SplineSet
319 535 m 1
 362 535 l 1
 357 463 l 1
 387 464 l 1
 374 399 l 1
 354 414 l 1
 325 422 l 1
 292 406 l 1
 290 523 l 1
 319 535 l 1
165 466 m 1
 163 391 l 1
 270 394 l 1
 270 394 255 374 253 371 c 0
 250 368 236 347 236 347 c 1
 229 324 l 1
 167 328 l 1
 163 254 l 1
 101 256 l 1
 102 465 l 1
 165 466 l 1
97 119 m 1
 97 119 217 116 224 116 c 0
 231 116 225 45 225 45 c 1
 166 48 l 1
 166 31 l 1
 100 34 l 1
 97 119 l 1
EndSplineSet
EndChar

StartChar: a
Encoding: 97 97 10
Width: 500
Flags: HW
LayerCount: 2
Fore
SplineSet
290 527 m 1
 324 527 l 1
 357 509 l 1
 370 496 l 1
 297 496 l 1
 295 408 l 1
 284 420 l 1
 262 427 l 1
 232 428 l 1
 234 466 l 1
 234 495 l 1
 234 495 125 488 123 488 c 0
 121 488 132 499 132 499 c 1
 165 510 l 1
 210 527 l 1
 290 527 l 1
99 483 m 1
 109 468 l 1
 94 456 l 1
 125 396 l 1
 125 396 117 388 113 388 c 0
 109 388 74 463 74 463 c 1
 99 483 l 1
394 470 m 1
 415 444 l 1
 428 406 l 1
 392 405 l 1
 394 470 l 1
294 344 m 1
 339 343 l 1
 443 341 l 1
 441 273 l 1
 422 273 l 1
 423 199 l 1
 441 200 l 1
 436 129 l 1
 361 128 l 1
 365 268 l 1
 295 271 l 1
 259 266 l 1
 259 266 234 255 231 252 c 0
 228 249 192 230 192 230 c 1
 167 200 l 1
 160 150 l 1
 163 60 l 1
 230 59 l 1
 230 30 l 1
 188 30 l 1
 138 31 l 1
 102 59 l 1
 86 83 l 1
 65 116 l 1
 61 136 l 1
 94 129 l 1
 103 272 l 1
 227 276 l 1
 234 333 l 1
 255 335 l 1
 294 344 l 1
331 106 m 0
 332 106 334 98 334 98 c 1
 309 79 l 1
 296 38 l 1
 281 50 l 1
 295 85 l 1
 295 85 330 106 331 106 c 0
336 69 m 1
 435 68 l 1
 436 44 l 1
 339 44 l 1
 336 69 l 1
EndSplineSet
EndChar

StartChar: g
Encoding: 103 103 11
Width: 640
Flags: HW
LayerCount: 2
Fore
SplineSet
87 -100 m 1
 379 -95 l 1
 390 -89 l 1
 419 -78 l 1
 436 -33 l 1
 432 -7 l 1
 390 6 l 1
 394 111 l 1
 394 111 106 112 103 107 c 0
 99 102 105 141 105 141 c 1
 114 188 l 1
 160 229 l 1
 138 241 l 1
 108 278 l 1
 98 307 l 1
 97 395 l 1
 99 417 l 1
 106 440 l 1
 126 470 l 1
 174 470 l 1
 176 509 l 1
 204 520 l 1
 235 536 l 1
 277 537 l 1
 320 538 l 1
 318 470 l 1
 247 469 l 1
 244 418 l 1
 234 417 l 1
 232 401 l 1
 170 403 l 1
 176 189 l 1
 229 188 l 1
 215 170 l 1
 219 138 l 1
 244 120 l 1
 409 117 l 1
 483 104 l 1
 526 85 l 1
 563 45 l 1
 462 39 l 1
 470 -97 l 1
 536 -98 l 1
 505 -136 l 1
 439 -169 l 1
 366 -185 l 1
 322 -183 l 1
 318 -165 l 1
 174 -170 l 1
 138 -155 l 1
 99 -125 l 1
 87 -100 l 1
393 397 m 1
 390 521 l 1
 463 520 l 1
 460 468 l 1
 559 470 l 1
 563 423 l 1
 479 421 l 1
 497 398 l 1
 393 397 l 1
378 197 m 1
 375 303 l 1
 494 313 l 1
 479 266 l 1
 450 231 l 1
 378 197 l 1
89 -21 m 1
 124 28 l 1
 221 18 l 1
 194 -20 l 1
 89 -21 l 1
EndSplineSet
EndChar

StartChar: I
Encoding: 73 73 12
Width: 606
Flags: HW
LayerCount: 2
Fore
SplineSet
189 20 m 1
 188 670 l 1
 442 670 l 1
 444 603 l 1
 312 600 l 1
 310 171 l 1
 442 172 l 1
 442 99 l 1
 316 103 l 1
 310 18 l 1
 189 20 l 1
321 -25 m 1
 348 -76 l 1
 441 -76 l 1
 442 -125 l 1
 395 -102 l 1
 320 -104 l 1
 356 -126 l 1
 404 -178 l 1
 467 -168 l 1
 500 -110 l 1
 500 -185 l 1
 399 -192 l 1
 340 -145 l 1
 276 -118 l 1
 141 -152 l 1
 74 -122 l 1
 81 -84 l 1
 118 -69 l 1
 88 -92 l 1
 84 -118 l 1
 145 -138 l 1
 193 -126 l 1
 232 -103 l 1
 202 -90 l 1
 202 -90 188 -60 187 -59 c 0
 185 -56 189 -24 189 -24 c 1
 321 -25 l 1
EndSplineSet
EndChar

StartChar: l
Encoding: 108 108 13
Width: 322
Flags: HW
LayerCount: 2
Fore
SplineSet
84 688 m 1
 126 688 l 1
 126 594 l 1
 202 595 l 1
 204 541 l 1
 84 542 l 1
 84 688 l 1
142 486 m 1
 200 485 l 1
 195 217 l 1
 144 214 l 1
 144 350 l 1
 86 348 l 1
 85 423 l 1
 139 417 l 1
 142 486 l 1
85 212 m 1
 117 210 l 1
 120 83 l 1
 86 126 l 1
 83 172 l 1
 85 212 l 1
172 169 m 1
 200 169 l 1
 200 158 l 1
 225 149 l 1
 238 149 l 1
 256 66 l 1
 222 54 l 1
 189 57 l 1
 172 57 l 1
 172 169 l 1
EndSplineSet
EndChar

StartChar: b
Encoding: 98 98 14
Width: 550
Flags: HW
LayerCount: 2
Fore
SplineSet
119 637 m 1
 118 597 l 1
 188 596 l 1
 188 596 192 636 187 636 c 0
 182 635 119 637 119 637 c 1
119 637 m 1
 118 597 l 1
 115 375 l 1
 71 375 l 1
 69 636 l 1
 119 637 l 1
252 454 m 1
 251 374 l 1
 214 360 l 1
 182 328 l 1
 183 423 l 1
 212 433 l 1
 252 454 l 1
387 448 m 1
 415 427 l 1
 455 384 l 1
 484 304 l 1
 453 304 l 1
 455 115 l 1
 441 88 l 1
 411 58 l 1
 384 37 l 1
 343 19 l 1
 297 13 l 1
 265 17 l 1
 254 20 l 1
 256 42 l 1
 196 47 l 1
 191 137 l 1
 214 121 l 1
 240 106 l 1
 288 105 l 1
 319 106 l 1
 325 43 l 1
 387 43 l 1
 385 235 l 1
 364 237 l 1
 364 268 l 1
 354 298 l 1
 384 302 l 1
 387 448 l 1
186 305 m 1
 184 234 l 1
 127 238 l 1
 123 28 l 1
 69 28 l 1
 68 304 l 1
 186 305 l 1
EndSplineSet
EndChar

StartChar: c
Encoding: 99 99 15
Width: 574
Flags: HW
LayerCount: 2
Fore
SplineSet
383 584 m 1
 429 579 l 1
 458 564 l 1
 497 546 l 1
 495 490 l 1
 451 436 l 1
 409 460 l 1
 404 543 l 1
 205 542 l 1
 247 562 l 1
 274 574 l 1
 301 583 l 1
 340 584 l 1
 383 584 l 1
247 462 m 1
 245 400 l 1
 228 367 l 1
 216 291 l 1
 232 211 l 1
 247 183 l 1
 248 120 l 1
 408 122 l 1
 408 39 l 1
 485 38 l 1
 456 22 l 1
 387 6 l 1
 329 4 l 1
 329 39 l 1
 210 39 l 1
 174 57 l 1
 149 87 l 1
 111 120 l 1
 163 123 l 1
 165 376 l 1
 82 375 l 1
 90 408 l 1
 116 458 l 1
 247 462 l 1
EndSplineSet
EndChar

StartChar: f
Encoding: 102 102 16
Width: 594
Flags: HW
LayerCount: 2
Fore
SplineSet
346 713 m 1
 429 713 l 1
 429 607 l 1
 399 619 l 1
 370 611 l 1
 368 694 l 1
 294 694 l 1
 321 706 l 1
 346 713 l 1
237 584 m 1
 271 584 l 1
 271 439 l 1
 235 439 l 1
 178 439 l 1
 175 490 l 1
 238 495 l 1
 237 584 l 1
371 500 m 1
 371 497 l 1
 370 497 l 1
 371 500 l 1
371 497 m 1
 418 496 l 1
 415 402 l 1
 370 405 l 1
 371 497 l 1
235 349 m 1
 334 348 l 1
 332 261 l 1
 234 264 l 1
 235 349 l 1
230 188 m 1
 334 188 l 1
 337 31 l 1
 320 32 l 1
 318 117 l 1
 256 115 l 1
 254 46 l 1
 233 48 l 1
 230 188 l 1
EndSplineSet
EndChar

StartChar: k
Encoding: 107 107 17
Width: 536
Flags: HW
LayerCount: 2
Fore
SplineSet
100 695 m 1
 191 695 l 1
 191 587 l 1
 146 589 l 1
 147 518 l 1
 100 519 l 1
 100 695 l 1
446 490 m 1
 413 445 l 1
 413 476 l 1
 359 474 l 1
 360 365 l 1
 314 300 l 1
 344 256 l 1
 244 259 l 1
 245 206 l 1
 204 151 l 1
 204 115 l 1
 187 115 l 1
 187 328 l 1
 129 329 l 1
 126 190 l 1
 96 190 l 1
 97 401 l 1
 203 399 l 1
 206 298 l 1
 242 355 l 1
 241 329 l 1
 301 329 l 1
 300 441 l 1
 337 490 l 1
 446 490 l 1
375 188 m 1
 417 115 l 1
 355 114 l 1
 359 31 l 1
 350 31 l 1
 272 187 l 1
 375 188 l 1
173 70 m 1
 200 70 l 1
 201 31 l 1
 98 31 l 1
 98 46 l 1
 173 46 l 1
 173 70 l 1
100 695 m 1
 191 695 l 1
 191 587 l 1
 146 589 l 1
 147 518 l 1
 100 519 l 1
 100 695 l 1
446 490 m 1
 413 445 l 1
 413 476 l 1
 359 474 l 1
 360 365 l 1
 314 300 l 1
 344 256 l 1
 244 259 l 1
 245 206 l 1
 204 151 l 1
 204 115 l 1
 187 115 l 1
 187 328 l 1
 129 329 l 1
 126 190 l 1
 96 190 l 1
 97 401 l 1
 203 399 l 1
 206 298 l 1
 242 355 l 1
 241 329 l 1
 301 329 l 1
 300 441 l 1
 337 490 l 1
 446 490 l 1
375 188 m 1
 417 115 l 1
 355 114 l 1
 359 30 l 1
 350 29 l 1
 272 187 l 1
 375 188 l 1
173 70 m 1
 200 70 l 1
 201 28 l 1
 99 31 l 1
 98 46 l 1
 173 44 l 1
 173 70 l 1
EndSplineSet
EndChar

StartChar: t
Encoding: 116 116 18
Width: 440
Flags: HW
LayerCount: 2
Fore
SplineSet
156 717 m 1
 205 717 l 1
 205 456 l 1
 248 455 l 1
 248 368 l 1
 137 366 l 1
 133 453 l 1
 141 451 l 1
 138 569 l 1
 147 624 l 1
 156 667 l 1
 156 717 l 1
357 574 m 1
 356 473 l 1
 309 474 l 1
 309 572 l 1
 357 574 l 1
105 505 m 1
 105 475 l 1
 78 474 l 1
 78 504 l 1
 105 505 l 1
134 333 m 1
 147 332 l 1
 146 144 l 1
 139 156 l 1
 134 192 l 1
 134 333 l 1
269 159 m 1
 288 143 l 1
 330 147 l 1
 332 158 l 1
 350 158 l 1
 366 64 l 1
 327 44 l 1
 304 36 l 1
 247 38 l 1
 218 50 l 1
 174 87 l 1
 162 108 l 1
 267 107 l 1
 269 159 l 1
EndSplineSet
EndChar

StartChar: period
Encoding: 46 46 19
Width: 0
Flags: HW
LayerCount: 2
Fore
SplineSet
142 77 m 1
 223 78 l 1
 212 62 l 1
 173 47 l 1
 144 43 l 1
 113 58 l 1
 89 84 l 1
 67 116 l 1
 78 154 l 1
 119 193 l 1
 139 208 l 1
 142 77 l 1
188 198 m 1
 212 195 l 1
 231 173 l 1
 244 143 l 1
 190 147 l 1
 188 198 l 1
EndSplineSet
EndChar

StartChar: w
Encoding: 119 119 20
Width: 742
Flags: HW
LayerCount: 2
Fore
SplineSet
40 441 m 1
 156 439 l 1
 218 176 l 1
 120 178 l 1
 101 237 l 1
 182 236 l 1
 183 293 l 1
 122 294 l 1
 121 410 l 1
 46 411 l 1
 40 441 l 1
569 440 m 1
 679 440 l 1
 664 406 l 1
 562 411 l 1
 569 440 l 1
389 440 m 1
 387 390 l 1
 296 390 l 1
 309 438 l 1
 389 440 l 1
396 358 m 1
 392 293 l 1
 367 296 l 1
 355 337 l 1
 344 306 l 1
 275 309 l 1
 285 357 l 1
 396 358 l 1
547 353 m 1
 647 352 l 1
 632 291 l 1
 530 295 l 1
 547 353 l 1
441 335 m 1
 456 291 l 1
 434 292 l 1
 441 335 l 1
518 240 m 1
 616 237 l 1
 594 178 l 1
 506 178 l 1
 518 240 l 1
254 239 m 1
 337 234 l 1
 314 181 l 1
 235 178 l 1
 254 239 l 1
381 238 m 1
 469 237 l 1
 489 176 l 1
 443 176 l 1
 442 119 l 1
 588 121 l 1
 565 61 l 1
 429 60 l 1
 381 238 l 1
300 123 m 1
 284 60 l 1
 155 59 l 1
 135 120 l 1
 300 123 l 1
EndSplineSet
EndChar

StartChar: m
Encoding: 109 109 21
Width: 940
Flags: HW
LayerCount: 2
Fore
SplineSet
688.598632812 566.913085938 m 5
 732.481445312 562.692382812 l 5
 776.942382812 539.266601562 l 5
 810.698242188 503.823242188 l 5
 825.887695312 463.317382812 l 5
 824.073242188 382.487304688 l 5
 817.362304688 382.487304688 l 5
 833.581054688 228.223632812 l 5
 838.116210938 228.168945312 l 5
 838.112304688 158.182617188 l 5
 825.454101562 155.651367188 l 5
 821.516601562 77.4111328125 l 5
 835.864257812 74.8798828125 l 5
 830.799804688 58.8447265625 l 5
 746.573242188 58.7744140625 l 5
 747.416992188 154.133789062 l 5
 700.477539062 155.635742188 l 5
 699.719726562 229.858398438 l 5
 704.116210938 229.805664062 l 5
 701.725585938 382.487304688 l 5
 699.073242188 382.487304688 l 5
 698.227539062 409.493164062 l 5
 683.038085938 438.184570312 l 5
 664.473632812 454.217773438 l 5
 748.834960938 456.743164062 l 5
 747.172851562 533.135742188 l 5
 673.756835938 536.512695312 l 5
 674.083007812 555.909179688 l 5
 634.413085938 556.618164062 l 5
 598.840820312 536.983398438 l 5
 598.883789062 453.340820312 l 5
 575.254882812 439.836914062 l 5
 549.938476562 425.491210938 l 5
 529.567382812 407.194335938 l 5
 527.877929688 379.346679688 l 5
 526.452148438 379.393554688 l 5
 524.760742188 56.0693359375 l 5
 513.790039062 56.0693359375 l 5
 516.477539062 379.713867188 l 5
 449.397460938 381.877929688 l 5
 449.397460938 381.877929688 445.545898438 62.5234375 446.389648438 59.1474609375 c 4
 447.233398438 55.771484375 387.319335938 61.6787109375 387.319335938 61.6787109375 c 5
 397.282226562 347.813476562 l 5
 394.750976562 392.538085938 l 5
 379.418945312 425.206054688 l 5
 354.102539062 453.053710938 l 5
 524.571289062 454.555664062 l 5
 522.793945312 475.895507812 l 5
 446.014648438 534.028320312 l 5
 273.860351562 532.178710938 l 5
 208.633789062 478.188476562 l 5
 183.116210938 528.116210938 l 5
 98.0556640625 527.877929688 l 5
 100.645507812 451.499023438 l 5
 129.497070312 452.139648438 292.530273438 455.762695312 295.629882812 455.762695312 c 4
 299.005859375 455.762695312 252.592773438 431.290039062 252.592773438 431.290039062 c 5
 217.735351562 401.495117188 l 5
 223.014648438 86.5986328125 l 5
 81.8251953125 82.8154296875 l 5
 77.9853515625 153.676757812 l 5
 149.993164062 152.038085938 l 5
 144.844726562 383.346679688 l 5
 82.3974609375 384.190429688 l 5
 83.2705078125 451.118164062 l 5
 83.2705078125 451.118164062 89.205078125 451.247070312 89.5615234375 451.254882812 c 5
 86.2041015625 527.846679688 l 5
 81.5947265625 527.833007812 l 5
 80.0498046875 552.612304688 l 5
 80.0498046875 552.612304688 181.701171875 553.807617188 187.415039062 553.807617188 c 4
 193.12890625 553.807617188 195.170898438 528.149414062 195.170898438 528.149414062 c 5
 192.979492188 528.143554688 l 5
 208.633789062 493.702148438 l 5
 263.672851562 536.532226562 l 5
 265.133789062 536.323242188 l 5
 306.551757812 561.778320312 l 5
 350.430664062 566.864257812 l 5
 396.372070312 565.670898438 l 5
 441.514648438 555.987304688 l 5
 472.092773438 534.309570312 l 5
 461.963867188 534.200195312 l 5
 521.612304688 490.071289062 l 5
 521.196289062 495.061523438 l 5
 546.512695312 516.159179688 l 5
 569.295898438 534.723632812 l 5
 598.833007812 552.446289062 l 5
 598.836914062 546.252929688 l 5
 635.256835938 562.526367188 l 5
 674.194335938 562.526367188 l 5
 674.252929688 566.069335938 l 5
 688.598632812 566.913085938 l 5
720.526367188 382.487304688 m 5
 726.665039062 229.530273438 l 5
 819.194335938 228.399414062 l 5
 801.444335938 382.487304688 l 5
 720.526367188 382.487304688 l 5
EndSplineSet
EndChar

StartChar: s
Encoding: 115 115 22
Width: 522
Flags: HW
LayerCount: 2
Fore
SplineSet
135 298 m 1
 88 349 l 1
 79 401 l 1
 83 464 l 1
 106 509 l 1
 158 553 l 1
 215 573 l 1
 286 576 l 1
 291 470 l 1
 247 473 l 1
 215 451 l 1
 215 520 l 1
 141 520 l 1
 135 298 l 1
217 258 m 1
 217 263 217 395 217 395 c 1
 247 370 l 1
 289 357 l 1
 290 270 l 1
 366 274 l 1
 362 327 l 1
 402 296 l 1
 438 249 l 1
 436 192 l 1
 321 191 l 1
 308 215 l 1
 276 232 l 1
 234 248 l 1
 217 258 l 1
364 446 m 1
 365 561 l 1
 406 537 l 1
 445 511 l 1
 387 432 l 1
 364 446 l 1
229 74 m 1
 230 41 l 1
 375 45 l 1
 309 21 l 1
 238 18 l 1
 134 36 l 1
 68 76 l 1
 229 74 l 1
EndSplineSet
EndChar

StartChar: z
Encoding: 122 122 23
Width: 606
Flags: HW
LayerCount: 2
Fore
SplineSet
498 599 m 1
 501 549 l 1
 305 553 l 1
 302 486 l 1
 99 480 l 1
 97 591 l 1
 151 597 l 1
 145 547 l 1
 226 546 l 1
 224 595 l 1
 498 599 l 1
312 466 m 1
 462 464 l 1
 401 382 l 1
 383 383 l 1
 381 354 l 1
 304 235 l 1
 302 382 l 1
 252 385 l 1
 312 466 l 1
288 206 m 1
 246 155 l 1
 506 149 l 1
 507 86 l 1
 67 78 l 1
 74 119 l 1
 131 203 l 1
 288 206 l 1
EndSplineSet
EndChar

StartChar: y
Encoding: 121 121 24
Width: 694
Flags: HW
LayerCount: 2
Fore
SplineSet
581 560 m 1
 564 516 l 1
 488 517 l 1
 492 360 l 1
 393 360 l 1
 457 560 l 1
 581 560 l 1
92 559 m 1
 228 558 l 1
 238 518 l 1
 203 517 l 1
 201 440 l 1
 270 437 l 1
 291 358 l 1
 206 359 l 1
 199 290 l 1
 199 293 132 458 132 458 c 1
 131 517 l 1
 107 517 l 1
 92 559 l 1
337 194 m 1
 347 173 l 1
 356 190 l 1
 356 190 452 190 459 190 c 1
 405 38 l 1
 374 -34 l 1
 376 125 l 1
 257 125 l 1
 234 189 l 1
 337 194 l 1
146 -68 m 1
 150 -129 l 1
 300 -127 l 1
 263 -153 l 1
 182 -161 l 1
 133 -159 l 1
 125 -148 l 1
 129 -144 146 -68 146 -68 c 1
EndSplineSet
EndChar

StartChar: p
Encoding: 112 112 25
Width: 638
Flags: HW
LayerCount: 2
Fore
SplineSet
386 521 m 1
 406 513 l 1
 410 329 l 1
 536 336 l 1
 539 312 l 1
 535 252 l 1
 525 190 l 1
 502 132 l 1
 458 80 l 1
 454 300 l 1
 411 298 l 1
 405 329 l 1
 387 391 l 1
 352 415 l 1
 327 424 l 1
 326 519 l 1
 386 521 l 1
121 511 m 1
 192 509 l 1
 191 472 l 1
 207 469 l 1
 207 457 l 1
 225 466 l 1
 257 467 l 1
 256 401 l 1
 219 370 l 1
 219 163 l 1
 256 140 l 1
 257 52 l 1
 213 79 l 1
 216 -33 l 1
 193 -32 l 1
 190 110 l 1
 101 108 l 1
 100 187 l 1
 190 184 l 1
 193 252 l 1
 99 254 l 1
 100 327 l 1
 192 329 l 1
 190 396 l 1
 97 401 l 1
 101 474 l 1
 123 471 l 1
 121 511 l 1
386 170 m 1
 385 34 l 1
 359 26 l 1
 324 28 l 1
 321 125 l 1
 341 130 l 1
 363 146 l 1
 386 170 l 1
102 -58 m 1
 223 -61 l 1
 220 -88 l 1
 142 -85 l 1
 144 -140 l 1
 104 -143 l 1
 102 -58 l 1
EndSplineSet
EndChar

StartChar: A
Encoding: 65 65 26
Width: 872
Flags: HW
LayerCount: 2
Fore
SplineSet
336 787 m 1
 336 640 l 1
 404 636 l 1
 378 556 l 1
 238 559 l 1
 319 786 l 1
 336 787 l 1
576 639 m 1
 608 555 l 1
 522 551 l 1
 518 462 l 1
 638 462 l 1
 666 375 l 1
 510 375 l 1
 427 635 l 1
 576 639 l 1
237 535 m 1
 242 371 l 1
 331 375 l 1
 315 333 l 1
 517 333 l 1
 523 291 l 1
 700 285 l 1
 732 191 l 1
 564 192 l 1
 553 217 l 1
 422 220 l 1
 422 220 423 281 423 285 c 0
 423 289 241 285 241 285 c 1
 240 197 l 1
 278 198 l 1
 245 109 l 1
 83 106 l 1
 112 197 l 1
 112 197 155 191 154 194 c 0
 153 197 154 294 154 294 c 1
 237 535 l 1
604 90 m 1
 761 91 l 1
 761 91 786 39 784 33 c 0
 783 30 760 -27 760 -27 c 1
 697 -78 550 -159 550 -159 c 1
 498 -139 l 1
 274 -87 l 1
 531 -86 l 1
 530 -126 l 1
 553 -132 l 1
 606 -93 l 1
 642 -53 l 1
 640 23 l 1
 604 90 l 1
EndSplineSet
EndChar

StartChar: B
Encoding: 66 66 27
Width: 770
Flags: HW
LayerCount: 2
Fore
SplineSet
246 -24 m 1
 263 -64 l 1
 219 -104 l 1
 255 -126 l 1
 308 -147 l 1
 331 -144 l 1
 330 -123 l 1
 587 -123 l 1
 364 -151 l 1
 311 -162 l 1
 311 -162 163 -117 100 -89 c 1
 100 -89 87 -59 86 -58 c 0
 84 -55 88 -23 88 -23 c 1
 246 -24 l 1
159 744 m 1
 254 743 l 1
 247 273 l 1
 96 272 l 1
 90 350 l 1
 165 352 l 1
 163 523 l 1
 96 524 l 1
 93 606 l 1
 159 608 l 1
 159 744 l 1
427 743 m 1
 427 618 l 1
 393 628 l 1
 342 633 l 1
 341 743 l 1
 427 743 l 1
541 705 m 1
 591 682 l 1
 625 654 l 1
 636 616 l 1
 543 619 l 1
 541 705 l 1
601 521 m 1
 639 518 l 1
 632 485 l 1
 600 447 l 1
 601 521 l 1
421 459 m 1
 426 425 l 1
 254 426 l 1
 255 445 l 1
 373 443 l 1
 421 459 l 1
509 437 m 1
 587 437 l 1
 557 415 l 1
 534 408 l 1
 536 397 l 1
 614 374 l 1
 635 352 l 1
 598 351 l 1
 600 177 l 1
 683 182 l 1
 662 147 l 1
 662 147 643 97 638 98 c 0
 633 99 254 97 254 97 c 1
 252 127 l 1
 411 128 l 1
 494 152 l 1
 524 208 l 1
 521 282 l 1
 485 320 l 1
 366 345 l 1
 366 359 l 1
 508 359 l 1
 509 437 l 1
95 164 m 1
 161 161 l 1
 161 161 163 11 159 13 c 0
 155 15 90 11 90 11 c 1
 95 164 l 1
EndSplineSet
EndChar

StartChar: N
Encoding: 78 78 28
Width: 1000
Flags: HW
LayerCount: 2
Fore
SplineSet
224 -24 m 1
 347 -23 l 1
 347 -23 350 -55 348 -58 c 0
 347 -59 337 -89 337 -89 c 1
 288 -117 174 -162 174 -162 c 1
 150 -153 l 1
 139 -133 l 1
 109 -126 l 1
 159 -123 l 1
 158 -144 l 1
 176 -147 l 1
 217 -126 l 1
 245 -104 l 1
 211 -64 l 1
 224 -24 l 1
763 -18 m 1
 776 -59 l 1
 741 -98 l 1
 769 -120 l 1
 812 -142 l 1
 830 -138 l 1
 830 -117 l 1
 872 -116 l 1
 841 -126 l 1
 841 -145 l 1
 814 -156 l 1
 814 -156 696 -111 646 -83 c 1
 646 -83 636 -54 635 -53 c 0
 633 -50 636 -18 636 -18 c 1
 763 -18 l 1
760 742 m 1
 754 559 l 1
 733 560 l 1
 728 312 l 1
 654 313 l 1
 657 148 l 1
 757 152 l 1
 757 27 l 1
 732 27 l 1
 730 68 l 1
 656 65 l 1
 654 30 l 1
 614 30 l 1
 574 95 l 1
 574 346 l 1
 637 208 l 1
 625 397 l 1
 625 397 655 396 655 399 c 0
 655 402 655 561 655 561 c 1
 624 562 l 1
 623 648 l 1
 733 644 l 1
 729 724 l 1
 627 725 l 1
 624 742 l 1
 760 742 l 1
270 741 m 1
 269 725 l 1
 347 723 l 1
 354 737 l 1
 409 641 l 1
 266 646 l 1
 266 313 l 1
 214 315 l 1
 212 740 l 1
 270 741 l 1
417 626 m 1
 491 492 l 1
 487 260 l 1
 417 390 l 1
 417 626 l 1
214 220 m 1
 343 218 l 1
 346 149 l 1
 214 150 l 1
 214 220 l 1
350 68 m 1
 350 68 348 30 348 27 c 0
 348 24 262 28 262 28 c 1
 268 67 l 1
 350 68 l 1
EndSplineSet
EndChar

StartChar: hyphen
Encoding: 45 45 29
Width: 0
Flags: HW
LayerCount: 2
Fore
SplineSet
80 360 m 1
 129 359 l 1
 129 401 l 1
 310 401 l 1
 310 361 l 1
 200 359 l 1
 203 331 l 1
 80 328 l 1
 80 360 l 1
EndSplineSet
EndChar

StartChar: x
Encoding: 120 120 30
Width: 500
Flags: HW
LayerCount: 2
Fore
SplineSet
74 435 m 1
 193 434 l 1
 221 386 l 1
 219 283 l 1
 339 284 l 1
 343 261 l 1
 321 231 l 1
 379 161 l 1
 347 161 l 1
 340 37 l 1
 281 126 l 1
 281 221 l 1
 181 223 l 1
 196 240 l 1
 159 299 l 1
 161 403 l 1
 98 405 l 1
 74 435 l 1
333 435 m 1
 450 434 l 1
 428 404 l 1
 322 405 l 1
 333 435 l 1
104 95 m 1
 208 91 l 1
 179 36 l 1
 63 36 l 1
 104 95 l 1
418 91 m 1
 458 36 l 1
 417 34 l 1
 418 91 l 1
EndSplineSet
EndChar

StartChar: v
Encoding: 118 118 31
Width: 554
Flags: HW
LayerCount: 2
Fore
SplineSet
368 483 m 1
 500 482 l 1
 486 452 l 1
 358 453 l 1
 368 483 l 1
36 383 m 1
 164 382 l 1
 188 316 l 1
 62 317 l 1
 36 383 l 1
334 381 m 1
 349 381 l 1
 350 246 l 1
 405 247 l 1
 377 176 l 1
 349 177 l 1
 350 100 l 1
 325 41 l 1
 167 40 l 1
 146 103 l 1
 272 104 l 1
 269 183 l 1
 334 381 l 1
88 243 m 1
 212 241 l 1
 235 177 l 1
 118 175 l 1
 118 175 91 242 88 243 c 1
EndSplineSet
EndChar

StartChar: j
Encoding: 106 106 32
Width: 418
Flags: HW
LayerCount: 2
Fore
SplineSet
263 592 m 1
 285 582 l 1
 303 555 l 1
 303 534 l 1
 297 509 l 1
 275 494 l 1
 262 491 l 1
 263 592 l 1
217 590 m 1
 215 491 l 1
 184 516 l 1
 180 546 l 1
 196 581 l 1
 217 590 l 1
188 428 m 1
 216 424 l 1
 218 412 l 1
 274 404 l 1
 277 172 l 1
 296 176 l 1
 298 4 l 1
 287 -41 l 1
 278 -48 l 1
 272 -45 l 2
 271 -41 272 114 272 114 c 1
 216 112 l 1
 211 231 l 1
 190 230 l 1
 188 296 l 1
 216 292 l 1
 218 347 l 1
 186 348 l 1
 188 428 l 1
109 -29 m 1
 157 -33 l 1
 156 -58 l 1
 277 -62 l 1
 237 -97 l 1
 173 -110 l 1
 107 -109 l 1
 88 -102 l 1
 92 -97 109 -29 109 -29 c 1
EndSplineSet
EndChar

StartChar: q
Encoding: 113 113 33
Width: 574
Flags: HW
LayerCount: 2
Fore
SplineSet
276 522 m 1
 299 512 l 1
 299 512 328 491 331 491 c 0
 334 491 348 464 348 464 c 1
 353 482 l 1
 394 483 l 1
 396 411 l 1
 447 414 l 1
 446 339 l 1
 396 346 l 1
 396 346 396 275 397 271 c 0
 397 267 335 274 335 274 c 1
 334 410 l 1
 320 409 l 1
 306 421 l 1
 272 436 l 1
 276 522 l 1
117 477 m 1
 112 387 l 1
 69 387 l 1
 82 424 l 1
 117 477 l 1
91 271 m 1
 169 270 l 1
 170 251 l 1
 173 221 l 1
 185 198 l 1
 155 200 l 1
 158 63 l 1
 114 87 l 1
 87 131 l 1
 91 271 l 1
335 194 m 1
 371 192 l 1
 368 104 l 1
 338 105 l 1
 313 105 l 1
 313 80 l 1
 301 70 l 1
 281 59 l 1
 280 146 l 1
 297 155 l 1
 321 178 l 1
 335 194 l 1
397 127 m 1
 445 125 l 1
 443 -66 l 1
 477 -66 l 1
 477 -86 l 1
 443 -117 l 1
 411 -117 l 1
 410 -31 l 1
 353 -30 l 1
 354 -115 l 1
 334 -117 l 1
 335 57 l 1
 395 58 l 1
 397 127 l 1
EndSplineSet
EndChar

StartChar: colon
Encoding: 58 58 34
Width: 380
Flags: HW
LayerCount: 2
Fore
SplineSet
170.36328125 568.134765625 m 1
 174.833984375 404.1640625 l 1
 184.380859375 400.583984375 l 1
 211.830078125 408.341796875 l 1
 232.1171875 417.291015625 l 1
 252.40625 439.966796875 l 1
 261.953125 467.416015625 l 1
 261.357421875 503.81640625 l 1
 244.6484375 529.474609375 l 1
 250.6171875 537.232421875 l 1
 260.1640625 524.103515625 l 1
 268.517578125 501.4296875 l 1
 268.517578125 459.0625 l 1
 261.953125 435.193359375 l 1
 241.666015625 411.32421875 l 1
 216.0078125 397.599609375 l 1
 177.220703125 393.423828125 l 1
 154.544921875 401.77734375 l 1
 128.88671875 416.6953125 l 1
 115.7578125 441.7578125 l 1
 107.404296875 473.3828125 l 1
 108.900390625 510.8515625 l 1
 119.642578125 538.896484375 l 1
 139.9296875 558.587890625 l 1
 170.36328125 568.134765625 l 1
190.57421875 223.361328125 m 1
 226.974609375 219.78125 l 1
 250.841796875 197.703125 l 1
 271 155 l 1
 267.91015625 123.40234375 l 1
 267.314453125 103.708984375 l 1
 250.009765625 85.2109375 l 1
 249.689453125 156.14453125 l 1
 116.892578125 157.220703125 l 1
 117.490234375 114.255859375 l 1
 127.634765625 85.017578125 l 1
 157.46875 59.955078125 l 1
 204.609375 57.568359375 l 1
 204.609375 57.568359375 207.592773438 46.828125 204.609375 46.828125 c 0
 201.625976562 46.828125 156.873046875 51.00390625 156.873046875 51.00390625 c 1
 119.279296875 80.244140625 l 1
 106.748046875 111.2734375 l 1
 107.466796875 160.599609375 l 1
 121.60546875 190.443359375 l 1
 154.771484375 218.587890625 l 1
 190.57421875 223.361328125 l 1
EndSplineSet
EndChar

StartChar: R
Encoding: 82 82 35
Width: 788
Flags: HW
LayerCount: 2
Fore
SplineSet
204.552734375 -14.71875 m 1
 280.377929688 -14.111328125 l 1
 280.377929688 -14.111328125 282.515625 -53.8427734375 281.370117188 -58.0078125 c 0
 280.844726562 -59.9189453125 274.471679688 -97.0810546875 274.471679688 -97.0810546875 c 1
 244.40625 -132.5546875 173.661132812 -189.068359375 173.661132812 -189.068359375 c 1
 148.534179688 -175.072265625 l 1
 41.55078125 -139.252929688 l 1
 164.440429688 -138.846679688 l 1
 164.223632812 -166.247070312 l 1
 174.977539062 -170.596679688 l 1
 200.678710938 -143.158203125 l 1
 217.650390625 -115.428710938 l 1
 196.787109375 -65.6318359375 l 1
 204.552734375 -14.71875 l 1
588.545898438 -15.2626953125 m 1
 594.184570312 -41.0302734375 l 1
 579.037109375 -66.232421875 l 1
 591.358398438 -80.2666015625 l 1
 610.017578125 -94.1533203125 l 1
 617.825195312 -91.951171875 l 1
 617.66796875 -78.083984375 l 1
 706.88671875 -78.2900390625 l 1
 629.216796875 -96.41796875 l 1
 610.973632812 -103.501953125 l 1
 610.973632812 -103.501953125 559.611328125 -74.900390625 537.783203125 -56.9462890625 c 1
 537.783203125 -56.9462890625 533.157226562 -38.138671875 532.775390625 -37.171875 c 0
 531.944335938 -35.0634765625 533.49609375 -14.9560546875 533.49609375 -14.9560546875 c 1
 588.545898438 -15.2626953125 l 1
157.298828125 722.530273438 m 1
 467.651367188 721.044921875 l 1
 502.950195312 711.62890625 l 1
 557.254882812 700.865234375 l 1
 542.321289062 683.377929688 l 1
 463.579101562 703.555664062 l 1
 430.915039062 703.443359375 l 1
 430.578125 617.463867188 l 1
 384.49609375 615.561523438 l 1
 383.614257812 703.282226562 l 1
 179.850585938 702.588867188 l 1
 179.830078125 639.543945312 l 1
 296.6328125 638.048828125 l 1
 298.552734375 560.997070312 l 1
 179.803710938 560.997070312 l 1
 179.741210938 370.024414062 l 1
 265.76953125 368.918945312 l 1
 260.338867188 448.291015625 l 1
 302.42578125 448.291015625 l 1
 298.352539062 402.55078125 l 1
 337.724609375 402.55078125 l 1
 412.39453125 402.55078125 l 1
 465.342773438 411.96875 l 1
 503.356445312 452.326171875 l 1
 523.720703125 492.684570312 l 1
 525.078125 530.3515625 l 1
 508.787109375 574.744140625 l 1
 495.208984375 593.577148438 l 1
 496.567382812 611.06640625 l 1
 637.76171875 611.06640625 l 1
 644.548828125 601.650390625 l 1
 651.336914062 559.947265625 l 1
 656.76953125 533.041992188 l 1
 572.594726562 529.005859375 l 1
 566.834960938 376.3828125 l 1
 608.921875 364.276367188 l 1
 572.265625 331.989257812 l 1
 522.083007812 320.270507812 l 1
 537.017578125 293.3671875 l 1
 530.13671875 293.756835938 l 1
 580.608398438 210.881835938 l 1
 581.03515625 210.875 l 1
 586.736328125 200.818359375 l 1
 690.127929688 31.048828125 l 1
 662.977539062 31.048828125 l 1
 610.481445312 124.50390625 l 1
 570.577148438 125.404296875 l 1
 569.219726562 28.5478515625 l 1
 529.84765625 29.892578125 l 1
 479.213867188 131.504882812 l 1
 488.716796875 131.504882812 l 1
 486.001953125 212.219726562 l 1
 561.81640625 211.147460938 l 1
 514.930664062 294.6171875 l 1
 489.499023438 296.056640625 l 1
 493.57421875 376.771484375 l 1
 345.220703125 379.461914062 l 1
 342.505859375 293.366210938 l 1
 342.505859375 293.366210938 301.77734375 294.711914062 294.989257812 294.711914062 c 0
 288.201171875 294.711914062 298.508789062 128.203125 298.508789062 128.203125 c 1
 268.642578125 129.547851562 l 1
 270 30 l 1
 165.461914062 24.6171875 l 1
 158.673828125 48.8330078125 l 1
 193.178710938 44.3310546875 l 1
 189.130859375 209.35546875 l 1
 189.130859375 209.35546875 269.719726562 211.524414062 264.290039062 211.524414062 c 0
 258.859375 211.524414062 267.004882812 290.89453125 267.004882812 290.89453125 c 1
 161.109375 288.204101562 l 1
 161.109375 370.263671875 l 1
 161.602539062 370.256835938 l 1
 157.298828125 722.530273438 l 1
EndSplineSet
EndChar

StartChar: L
Encoding: 76 76 36
Width: 552
Flags: HW
LayerCount: 2
Fore
SplineSet
84.751953125 -50.68359375 m 1
 162.998046875 -43.126953125 l 1
 206.01953125 -0.701171875 l 1
 197 -68 l 1
 161.569335938 -93.97265625 l 1
 249.927734375 -116.802734375 l 1
 357.3046875 -85.53515625 l 1
 432.290039062 -144.022460938 l 1
 404.71484375 -218.848632812 l 1
 308.938476562 -235.907226562 l 1
 391.717773438 -201.8828125 l 1
 410.794921875 -156.768554688 l 1
 352.915039062 -108.545898438 l 1
 248.081054688 -138.259765625 l 1
 76.986328125 -101.59765625 l 1
 84.751953125 -50.68359375 l 1
79.296875 704.407226562 m 1
 209.685546875 703.213867188 l 1
 208.107421875 134.180664062 l 1
 477.73046875 133.086914062 l 1
 475.271484375 29.3037109375 l 1
 376.216796875 25.7236328125 l 1
 376.216796875 43.6240234375 l 1
 455.806640625 42.4306640625 l 1
 457 118.811523438 l 1
 209.58984375 118.811523438 l 1
 209.2890625 95.3720703125 l 1
 432.013671875 93.7705078125 l 1
 431.41796875 68.7080078125 l 1
 208.9296875 67.2802734375 l 1
 208.626953125 43.6669921875 l 1
 224.75 43.744140625 350.556640625 44.4287109375 350.556640625 44.4287109375 c 1
 347.57421875 25.9306640625 l 1
 208.42578125 28.0126953125 l 1
 208.396484375 25.7236328125 l 1
 77.580078125 26.2998046875 l 1
 76.38671875 58.5224609375 l 1
 136.65625 62.1025390625 l 1
 137.849609375 134.901367188 l 1
 80.56640625 136.094726562 l 1
 78.1796875 214.862304688 l 1
 192.71484375 214.862304688 l 1
 190.982421875 298.985351562 l 1
 139.6640625 298.985351562 l 1
 134.744140625 687.272460938 l 1
 94.16796875 686.079101562 l 1
 94.791015625 537.961914062 l 1
 81.662109375 535.575195312 l 1
 78.103515625 686.504882812 l 1
 79.296875 704.407226562 l 1
EndSplineSet
EndChar

StartChar: S
Encoding: 83 83 37
Width: 648
Flags: HW
LayerCount: 2
Fore
SplineSet
195.666992188 -193.76171875 m 1
 109.73046875 -158.762695312 l 1
 89.7734375 -105.805664062 l 1
 87.005859375 -70.390625 l 1
 120.625 -39.552734375 l 1
 178.880859375 -48.384765625 l 1
 210.53125 -72.115234375 l 1
 208.530273438 -95.6455078125 l 1
 172.663085938 -117.830078125 l 1
 197.12109375 -82.3017578125 l 1
 176.171875 -59.642578125 l 1
 128.208984375 -54.2880859375 l 1
 101.595703125 -77.8134765625 l 1
 108.203125 -104.975585938 l 1
 124.125976562 -149.857421875 l 1
 195.416992188 -180.21875 l 1
 247.952148438 -139.288085938 l 1
 288.524414062 -87.8134765625 l 1
 412.609375 -51.17578125 l 1
 487.594726562 -109.663085938 l 1
 460.01953125 -184.489257812 l 1
 364.243164062 -201.547851562 l 1
 329.306640625 -147.010742188 l 1
 352.333007812 -111.481445312 l 1
 401.377929688 -95.2587890625 l 1
 404.142578125 -115.498046875 l 1
 344.5546875 -151.446289062 l 1
 375.665039062 -184.952148438 l 1
 447.022460938 -167.5234375 l 1
 466.099609375 -122.409179688 l 1
 408.219726562 -74.1865234375 l 1
 303.385742188 -103.900390625 l 1
 262.407226562 -151.219726562 l 1
 195.666992188 -193.76171875 l 1
243.845703125 754.87890625 m 1
 243.845703125 710.998046875 l 1
 380.85546875 711.599609375 l 1
 381.69921875 754.638671875 l 1
 429.798828125 732.697265625 l 1
 454.271484375 723.4140625 l 1
 519.85546875 672.06640625 l 1
 499.1171875 636.919921875 l 1
 457.765625 585.443359375 l 1
 442.576171875 594.7265625 l 1
 501.78515625 668.080078125 l 1
 456.21484375 708.587890625 l 1
 457.060546875 630.94921875 l 1
 396.78125 626.73046875 l 1
 363.177734375 641.025390625 l 1
 318.42578125 641.025390625 l 1
 269.48046875 634.2734375 l 1
 234.880859375 614.021484375 l 1
 220.53515625 566.763671875 l 1
 227.28515625 548.19921875 l 1
 88.96875 548.52734375 l 1
 92.974609375 589.06640625 l 1
 103.1015625 629.572265625 l 1
 169.767578125 632.103515625 l 1
 170.4140625 714.751953125 l 1
 203.095703125 739.384765625 l 1
 243.845703125 754.87890625 l 1
236.115234375 520.15234375 m 1
 251.814453125 499.07421875 l 1
 269.53515625 488.947265625 l 1
 269.53515625 419.75 l 1
 136.55859375 414.59375 l 1
 117.1484375 450.880859375 l 1
 102.841796875 472.025390625 l 1
 90.18359375 514.220703125 l 1
 236.115234375 520.15234375 l 1
313.32421875 478.693359375 m 1
 341.173828125 458.44140625 l 1
 375.6796875 445.708984375 l 1
 386.650390625 443.177734375 l 1
 385.8046875 384.951171875 l 1
 484.42578125 381.1484375 l 1
 512.2734375 348.23828125 l 1
 532.52734375 316.169921875 l 1
 532.52734375 316.169921875 548.560546875 266.381835938 547.716796875 263.005859375 c 0
 546.873046875 259.630859375 543.498046875 180.3046875 543.498046875 180.3046875 c 1
 516.494140625 122.921875 l 1
 511.6875 122.962890625 l 1
 479.12109375 71.580078125 l 1
 425.95703125 43.732421875 l 1
 377.85546875 21.791015625 l 1
 317.232421875 13.39453125 l 1
 260.140625 13.28125 l 1
 223.8046875 25.095703125 l 1
 231.853515625 41.162109375 l 1
 270.671875 25.97265625 l 1
 320.4609375 26.81640625 l 1
 374.970703125 31.87890625 l 1
 468.150390625 78.330078125 l 1
 492.697265625 123.12890625 l 1
 341.58984375 124.443359375 l 1
 215.583984375 123.599609375 l 1
 171.701171875 124.443359375 l 1
 171.701171875 41.7421875 l 1
 144.20703125 54.564453125 l 1
 109.607421875 76.505859375 l 1
 98.63671875 84.099609375 l 1
 99.48046875 123.763671875 l 1
 72.41796875 125.3046875 l 1
 143.3828125 220.044921875 l 1
 181.357421875 183.7578125 l 1
 233.1015625 150.47265625 l 1
 279.515625 138.658203125 l 1
 323.3984375 136.126953125 l 1
 365.591796875 144.564453125 l 1
 394.185546875 169.126953125 l 1
 411.908203125 212.1640625 l 1
 522.45703125 212.060546875 l 1
 525.470703125 300.982421875 l 1
 349.119140625 300.953125 l 1
 309.505859375 323.640625 l 1
 260.994140625 345.998046875 l 1
 241.583984375 351.90625 l 1
 239.896484375 381.44140625 l 1
 311.626953125 381.44140625 l 1
 313.32421875 478.693359375 l 1
EndSplineSet
EndChar

StartChar: zero
Encoding: 48 48 38
Width: 628
Flags: HW
LayerCount: 2
Fore
SplineSet
295.806640625 788.771484375 m 0
 300.580078125 788.771484375 370.994140625 779.22265625 370.994140625 779.22265625 c 1
 370.994140625 779.22265625 386.047851562 771.637695312 398.029296875 764.626953125 c 1
 399.55859375 771.587890625 l 1
 444.91015625 713.111328125 l 1
 497.419921875 640.310546875 l 1
 511.302734375 628.650390625 l 1
 515.283203125 628.828125 l 1
 516.744140625 624.078125 l 1
 527.255859375 615.25 l 1
 519.4609375 615.25 l 1
 543.92578125 535.7421875 l 1
 411.9453125 531.64453125 l 1
 381.619140625 622.861328125 l 1
 476.51953125 627.09765625 l 1
 469.970703125 641.50390625 l 1
 441.330078125 694.015625 l 1
 397.8671875 751.5859375 l 1
 379.5078125 749.44140625 348.318359375 749.388671875 348.318359375 749.388671875 c 1
 231.400390625 750.31640625 l 1
 212.736328125 725.119140625 l 1
 155.451171875 669.02734375 l 1
 135.353515625 621.76953125 l 1
 231.814453125 621.76953125 l 1
 205.60546875 529.146484375 l 1
 83.875 526.759765625 l 1
 98.150390625 621.76953125 l 1
 103.845703125 621.76953125 l 1
 134.556640625 684.25 l 1
 186.48046875 738.24609375 l 1
 202.0625 750.548828125 l 1
 197.9453125 750.58203125 l 1
 199.184570312 750.58203125 202.420898438 752.000976562 206.380859375 753.958984375 c 2
 209.154296875 756.1484375 l 1
 210.763671875 756.21875 l 1
 226.501953125 764.530273438 250.45703125 779.22265625 250.45703125 779.22265625 c 1
 250.45703125 779.22265625 291.033203125 788.771484375 295.806640625 788.771484375 c 0
73.6953125 455.375 m 1
 204.97265625 455.375 l 1
 201.392578125 361.212890625 l 1
 77.525390625 361.10546875 l 1
 73.6953125 455.375 l 1
413.509765625 447.916015625 m 1
 551.46875 444.486328125 l 1
 545.5 366.912109375 l 1
 416.609375 369.298828125 l 1
 413.509765625 447.916015625 l 1
413.822265625 322.9765625 m 1
 550.04296875 322.3125 l 1
 546.462890625 305.60546875 l 1
 528.560546875 218.484375 l 1
 502.306640625 165.974609375 l 1
 484.404296875 119.4296875 l 1
 456.955078125 99.142578125 l 1
 458.5390625 237.53515625 l 1
 402.44921875 237.53515625 l 1
 412.62890625 276.43359375 l 1
 413.822265625 322.9765625 l 1
74.400390625 318.736328125 m 1
 205.677734375 316.349609375 l 1
 209.2578125 284.126953125 l 1
 212.837890625 257.87109375 l 1
 217.611328125 234.00390625 l 1
 147.19921875 236.390625 l 1
 144.517578125 159.357421875 l 1
 157.236328125 144.283203125 l 1
 189.458984375 100.125 l 1
 218.099609375 70.2890625 l 1
 272.810546875 55.265625 l 1
 308.025390625 51.2109375 l 1
 302.5625 149.04296875 l 1
 323.486328125 150.50390625 l 1
 335.419921875 150.50390625 l 1
 365.255859375 168.404296875 l 1
 378.3828125 198.240234375 l 1
 378.3828125 70.189453125 l 1
 428.5078125 70.189453125 l 1
 374.802734375 42.740234375 l 1
 339 32 l 1
 309.1640625 30.806640625 l 1
 309.0390625 33.037109375 l 1
 266.94921875 37.822265625 l 1
 220.40625 53.3359375 l 1
 186.990234375 77.205078125 l 1
 143.48046875 129.587890625 l 1
 143.2109375 121.865234375 l 1
 122.13671875 151.65625 l 1
 103.04296875 193.42578125 l 1
 83.947265625 262.64453125 l 1
 74.400390625 318.736328125 l 1
EndSplineSet
EndChar

StartChar: one
Encoding: 49 49 39
Width: 530
Flags: HW
LayerCount: 2
Fore
SplineSet
229.83203125 787.91015625 m 1
 329.44921875 784.46484375 l 1
 326.91796875 766.7421875 l 1
 280.921875 768.470703125 l 1
 280.654296875 595.9921875 l 1
 327.068359375 594.3046875 l 1
 320.9609375 168.8125 l 1
 344.58984375 167.96875 l 1
 344.58984375 152.779296875 l 1
 413.7890625 151.091796875 l 1
 412.9453125 169.65625 l 1
 445.85546875 167.96875 l 1
 444.037109375 62.349609375 l 1
 281 66 l 1
 283.158203125 236.400390625 l 1
 220.4921875 239.775390625 l 1
 212.896484375 151.16796875 l 1
 96.244140625 147.79296875 l 1
 97.521484375 73.669921875 l 1
 182.46875 70.923828125 l 1
 181.625 48.138671875 l 1
 93.90625 48.86328125 l 1
 71.771484375 43.150390625 l 1
 69.65625 169.396484375 l 1
 203.044921875 168.794921875 l 1
 202.94921875 244.78515625 l 1
 206.275390625 328.05078125 l 1
 281.119140625 323.53515625 l 1
 278.291015625 505.69140625 l 1
 211.70703125 512.900390625 l 1
 210.884765625 740.7265625 l 1
 140.654296875 715.015625 l 1
 142.466796875 622.6796875 l 1
 87.7734375 625.2109375 l 1
 92.1796875 724.765625 l 1
 108.212890625 724.765625 l 1
 120.87109375 726.453125 l 1
 140.28125 734.046875 l 1
 140.345703125 730.734375 l 1
 210.8046875 763.087890625 l 1
 210.78515625 768.412109375 l 1
 229.83203125 787.91015625 l 1
EndSplineSet
EndChar

StartChar: two
Encoding: 50 50 40
Width: 642
Flags: HW
LayerCount: 2
Fore
SplineSet
341.795898438 779.872070312 m 1
 393.314453125 760.251953125 l 1
 436.905273438 737.83203125 l 1
 435.16796875 737.885742188 l 1
 480.696289062 694.020507812 l 1
 514.380859375 634.23046875 l 1
 531.1875 591.977539062 l 1
 536.140625 535.923828125 l 1
 527.86328125 499.228515625 l 1
 532.088867188 499.262695312 l 1
 495.965820312 433.310546875 l 1
 496.119140625 433.323242188 l 1
 491.514648438 425.184570312 l 1
 485.525390625 414.248046875 l 1
 485.331054688 414.25 l 1
 427.68359375 312.330078125 l 1
 435.80078125 311.9609375 l 1
 360.368164062 231.172851562 l 1
 326.684570312 233.974609375 l 1
 332.627929688 201.27734375 l 1
 291.017578125 163.907226562 l 1
 333.619140625 162.0390625 l 1
 332.627929688 142.420898438 l 1
 253.9609375 143.100585938 l 1
 250.987304688 69.2939453125 l 1
 486.1953125 75.1259765625 l 1
 486.625976562 165.953125 l 1
 562.913085938 165.953125 l 1
 566 44 l 1
 88.513671875 46.013671875 l 1
 87.5234375 71.23828125 l 1
 180.65234375 70.3037109375 l 1
 179.659179688 145.041992188 l 1
 108.330078125 148.780273438 l 1
 194.091796875 230.17578125 l 1
 253.534179688 232.978515625 l 1
 252.220703125 298.814453125 l 1
 273.024414062 319.366210938 l 1
 400.220703125 313.580078125 l 1
 455.602539062 414.463867188 l 1
 347.736328125 415.244140625 l 1
 389.526367188 498.126953125 l 1
 497.18359375 498.983398438 l 1
 512.365234375 533.12109375 l 1
 510.383789062 601.96484375 l 1
 485.615234375 651.48046875 l 1
 438.934570312 710.485351562 l 1
 407.291992188 731.485351562 l 1
 409.6171875 575.293945312 l 1
 396.737304688 579.963867188 l 1
 369.987304688 636.017578125 l 1
 333.33203125 650.03125 l 1
 332.341796875 740.653320312 l 1
 187.786132812 743.823242188 l 1
 222.536132812 763.053710938 l 1
 269.099609375 777.067382812 l 1
 341.795898438 779.872070312 l 1
181.0859375 741.520507812 m 1
 178.114257812 656.801757812 l 1
 272.6875 659.272460938 l 1
 230.086914062 644.323242188 l 1
 193.428710938 618.166015625 l 1
 159.745117188 585.466796875 l 1
 84.0615234375 662.942382812 l 1
 181.0859375 741.520507812 l 1
EndSplineSet
EndChar

StartChar: slash
Encoding: 47 47 41
Width: 504
Flags: HW
LayerCount: 2
Fore
SplineSet
386.193359375 778.400390625 m 1
 343.017578125 641.1484375 l 1
 352.123046875 641.203125 l 1
 324.94921875 577.228515625 l 1
 322.916015625 577.2421875 l 1
 303.623046875 515.9140625 l 1
 311.572265625 515.5859375 l 1
 289.630859375 459.888671875 l 1
 268.533203125 456.513671875 l 1
 274.44140625 395.75390625 l 1
 234.423828125 264.630859375 l 1
 161.849609375 265.474609375 l 1
 96.83203125 58 l 1
 177 58 l 1
 171.09375 49.560546875 l 1
 86.916015625 49.6171875 l 1
 165.162109375 325.626953125 l 1
 200.60546875 326.470703125 l 1
 196.38671875 417.609375 l 1
 229.71484375 518.9609375 l 1
 287.77734375 516.56640625 l 1
 308.140625 577.333984375 l 1
 241.189453125 577.751953125 l 1
 274.89453125 684.591796875 l 1
 271.51953125 640.7109375 l 1
 329.49609375 641.064453125 l 1
 371.275390625 765.7421875 l 1
 296.169921875 747.177734375 l 1
 306.296875 773.337890625 l 1
 386.193359375 778.400390625 l 1
EndSplineSet
EndChar

StartChar: three
Encoding: 51 51 42
Width: 610
Flags: HW
LayerCount: 2
Fore
SplineSet
261.703125 745.51171875 m 1
 340.470703125 741.931640625 l 1
 396.560546875 728.802734375 l 1
 437.08984375 712.14453125 l 1
 437.23828125 712.12109375 l 1
 437.359375 712.03515625 l 1
 442.666015625 709.853515625 l 1
 440.4375 709.8359375 l 1
 478.58984375 682.5859375 l 1
 506.4375 641.234375 l 1
 525.001953125 588.9140625 l 1
 524.158203125 534.91796875 l 1
 513.1875 486.81640625 l 1
 481.96484375 444.62109375 l 1
 449.978515625 422.412109375 l 1
 444.916015625 433.3828125 l 1
 495.548828125 484.015625 l 1
 509.05078125 547.306640625 l 1
 506.51953125 603.00390625 l 1
 468.69140625 664.6953125 l 1
 421.43359375 696.76171875 l 1
 404.833984375 709.56640625 l 1
 285.134765625 708.66015625 l 1
 284.951171875 640.92578125 l 1
 369.685546875 634.958984375 l 1
 369.685546875 595.576171875 l 1
 319.5625 632.572265625 l 1
 278.984375 633.765625 l 1
 221.701171875 618.251953125 l 1
 175.15625 588.416015625 l 1
 147.70703125 571.70703125 l 1
 103.55078125 627.798828125 l 1
 207.681640625 633.94140625 l 1
 206.48828125 710.3203125 l 1
 156.36328125 706.740234375 l 1
 201.71484375 731.802734375 l 1
 261.703125 745.51171875 l 1
370.740234375 499.912109375 m 1
 365.810546875 315.767578125 l 1
 330.0078125 339.634765625 l 1
 287.044921875 345.6015625 l 1
 215.59375 349.5390625 l 1
 214.400390625 390.115234375 l 1
 284.8125 391.30859375 l 1
 281.232421875 447.400390625 l 1
 315.841796875 453.3671875 l 1
 352.837890625 476.04296875 l 1
 370.740234375 499.912109375 l 1
401.462890625 311.91796875 m 0
 445.947265625 311.805664062 531.35546875 310.15625 531.35546875 310.15625 c 1
 549.9765625 259.630859375 l 1
 549.9765625 242.251953125 l 1
 551.455078125 241.689453125 l 1
 549.767578125 190.212890625 l 1
 522.447265625 142.88671875 l 1
 524.958984375 142.8046875 l 1
 503.4765625 103.421875 l 1
 467.673828125 75.97265625 l 1
 435.451171875 64.0390625 l 1
 435.287109375 64.041015625 l 1
 406.1328125 41.365234375 l 1
 323 30 l 1
 244.10546875 33.919921875 l 1
 170.029296875 51.998046875 l 1
 175.091796875 64.65625 l 1
 232.4765625 43.55859375 l 1
 279.732421875 40.18359375 l 1
 379.15234375 45.24609375 l 1
 410.375 56.216796875 l 1
 416.810546875 64.330078125 l 1
 281.345703125 66.443359375 l 1
 284.92578125 140.859375 l 1
 213.3203125 142.052734375 l 1
 212.126953125 161.1484375 l 1
 256.283203125 150.408203125 l 1
 300.439453125 140.859375 l 1
 364.884765625 165.921875 l 1
 366.078125 148.01953125 l 1
 499.46484375 143.640625 l 1
 512.564453125 154.759765625 l 1
 531.97265625 182.609375 l 1
 534.578125 203.875 l 1
 534.228515625 222.384765625 l 1
 403.607421875 221.42578125 l 1
 415.421875 255.181640625 l 1
 390.10546875 288.9375 l 1
 375.30078125 311.400390625 l 1
 376.35546875 311.822265625 386.634765625 311.955078125 401.462890625 311.91796875 c 0
126.78125 216.9921875 m 1
 130.5546875 71.673828125 l 1
 101.912109375 85.994140625 l 1
 81.625 107.4765625 l 1
 57.0546875 130.62890625 l 1
 126.78125 216.9921875 l 1
EndSplineSet
EndChar

StartChar: four
Encoding: 52 52 43
Width: 692
Flags: HW
LayerCount: 2
Fore
SplineSet
349.490234375 785.158203125 m 1
 534.9296875 783.826171875 l 1
 534.9296875 433.77734375 l 1
 511.060546875 431.388671875 l 1
 512.25390625 513.736328125 l 1
 431.361328125 513.234375 l 1
 434.94140625 429.693359375 l 1
 388.162109375 430.99609375 l 1
 388.578125 597.109375 l 1
 510.74609375 598.84765625 l 1
 512.474609375 764.63671875 l 1
 332.783203125 767.2578125 l 1
 349.490234375 785.158203125 l 1
272.4296875 656.87109375 m 1
 269.271484375 516.4609375 l 1
 322.9765625 514.07421875 l 1
 262.111328125 430.828125 l 1
 181.77734375 431.09375 l 1
 180.583984375 515.828125 l 1
 272.4296875 656.87109375 l 1
97.234375 383.87109375 m 1
 98.427734375 344.48828125 l 1
 349.5546875 344.666015625 l 1
 349.451171875 260.29296875 l 1
 513.140625 257.02734375 l 1
 513.140625 341.76171875 l 1
 629.201171875 342.955078125 l 1
 626.1953125 262.546875 l 1
 601.1328125 262.546875 l 1
 602.326171875 236.291015625 l 1
 533.107421875 236.291015625 l 1
 534.638671875 80.6171875 l 1
 535.037109375 80.6171875 l 1
 534.732421875 71.17578125 l 1
 535 44 l 1
 533.85546875 44 l 1
 533.84375 43.62109375 l 1
 389.470703125 42.390625 l 1
 389.470703125 80.580078125 l 1
 402.56640625 86.5859375 l 1
 401.373046875 61.5234375 l 1
 514.541015625 61.5234375 l 1
 513.517578125 166.923828125 l 1
 388.322265625 170.095703125 l 1
 391.90234375 235.734375 l 1
 269.400390625 239.064453125 l 1
 268.20703125 259.353515625 l 1
 62.8359375 268.3046875 l 1
 57.353515625 337.029296875 l 1
 97.234375 383.87109375 l 1
EndSplineSet
EndChar

StartChar: five
Encoding: 53 53 44
Width: 578
Flags: HW
LayerCount: 2
Fore
SplineSet
127.234375 755.4375 m 1
 463.904296875 751.79296875 l 1
 461.517578125 736.279296875 l 1
 460.353515625 736.26953125 l 1
 461.93359375 629.126953125 l 1
 359.146484375 631.66015625 l 1
 359.146484375 651.068359375 l 1
 441.177734375 649.74609375 l 1
 442.43359375 736.12890625 l 1
 262.36328125 734.701171875 l 1
 267.47265625 631.52734375 l 1
 234.056640625 631.52734375 l 1
 222.2890625 483.302734375 l 1
 253.318359375 498.81640625 l 1
 318.95703125 504.78515625 l 1
 375.046875 492.849609375 l 1
 422.78515625 459.43359375 l 1
 451.427734375 420.05078125 l 1
 397.11328125 417.6640625 l 1
 397.11328125 337.705078125 l 1
 487.048828125 342.455078125 l 1
 488.138671875 262.423828125 l 1
 459.49609375 260.037109375 l 1
 463.076171875 159.7890625 l 1
 400.57421875 87.166015625 l 1
 401.419921875 257.525390625 l 1
 372.435546875 257.4453125 l 1
 366.251953125 229.95703125 l 1
 347.86328125 171.67578125 l 1
 347.86328125 171.67578125 319.170898438 149.734375 315.794921875 149.734375 c 0
 312.418945312 149.734375 249.681640625 136.232421875 249.681640625 136.232421875 c 1
 249.681640625 136.232421875 206.643554688 147.203125 203.267578125 147.203125 c 0
 199.891601562 147.203125 149.259765625 170.83203125 149.259765625 170.83203125 c 1
 121.412109375 204.587890625 l 1
 70.775390625 126.583984375 l 1
 61.99609375 135.869140625 l 1
 119.27734375 224.71875 l 1
 156.408203125 187.587890625 l 1
 185.099609375 165.646484375 l 1
 220.54296875 154.67578125 l 1
 276.021484375 149.8828125 l 1
 325.810546875 168.44921875 l 1
 348.595703125 208.111328125 l 1
 363.28125 257.419921875 l 1
 361.369140625 257.4140625 l 1
 363.755859375 286.056640625 l 1
 357.7890625 345.728515625 l 1
 324.373046875 377.951171875 l 1
 325.56640625 422.107421875 l 1
 103.216796875 418.794921875 l 1
 110.376953125 497.5625 l 1
 189.3125 498.26171875 l 1
 194.06640625 733.95703125 l 1
 123.654296875 732.763671875 l 1
 127.234375 755.4375 l 1
99.5859375 94.69140625 m 1
 323.806640625 93.31640625 l 1
 325 42 l 1
 278.45703125 38.419921875 l 1
 205.505859375 37.703125 l 1
 137.045898438 68.15234375 l 1
 99.5859375 94.69140625 l 1
EndSplineSet
EndChar

StartChar: six
Encoding: 54 54 45
Width: 596
Flags: HW
LayerCount: 2
Fore
SplineSet
316.5703125 735.55859375 m 1
 406.060546875 728.75390625 l 1
 457.537109375 705.125 l 1
 448.984375 690.376953125 l 1
 429.576171875 700.501953125 l 1
 386.537109375 719.068359375 l 1
 319.02734375 722.443359375 l 1
 252.4375 717.541015625 l 1
 213.068359375 691.943359375 l 1
 215.21484375 634.482421875 l 1
 494.529296875 635.6328125 l 1
 437.013671875 583.98828125 l 1
 395.740234375 615.98046875 l 1
 328.970703125 628.806640625 l 1
 273.275390625 619.525390625 l 1
 219.7578125 567.98046875 l 1
 219.7578125 567.98046875 193.59765625 519.877929688 191.06640625 514.814453125 c 0
 188.53515625 509.750976562 175.876953125 454.900390625 175.876953125 454.900390625 c 1
 175.033203125 402.80078125 l 1
 138.74609375 402.80078125 l 1
 139.080078125 246.486328125 l 1
 187.181640625 247.330078125 l 1
 193.087890625 218.638671875 l 1
 220.9375 173.068359375 l 1
 231.908203125 157.87890625 l 1
 263.974609375 135.09375 l 1
 293.509765625 137.625 l 1
 293.724609375 132.36328125 l 1
 342.28125 137.21875 l 1
 393.78125 188.533203125 l 1
 396.3125 253.51171875 l 1
 417.9765625 252.87109375 l 1
 412.912109375 187.048828125 l 1
 351.064453125 119.859375 l 1
 294.578125 111.369140625 l 1
 297.171875 47.67578125 l 1
 332.5546875 47.67578125 l 1
 367.998046875 54.427734375 l 1
 419.474609375 76.369140625 l 1
 459.98046875 116.875 l 1
 492.892578125 175.947265625 l 1
 511.45703125 213.921875 l 1
 502.921875 322.443359375 l 1
 521.48828125 323.287109375 l 1
 521.48828125 300.50390625 l 1
 523.763671875 210.5 l 1
 495.916015625 153.9609375 l 1
 464.69140625 102.484375 l 1
 424.603515625 65.84765625 l 1
 363 38 l 1
 296.33203125 33.78125 l 1
 295.96484375 34.099609375 l 1
 250.47265625 37.34765625 l 1
 211.806640625 54.765625 l 1
 216.69921875 162.375 l 1
 144.326171875 164.796875 l 1
 142.9921875 94.884765625 l 1
 124.337890625 116.419921875 l 1
 90.583984375 177.1796875 l 1
 62.736328125 228.65625 l 1
 52.123046875 279.4140625 l 1
 50.435546875 322.451171875 l 1
 62.25 323.294921875 l 1
 63.716796875 400.857421875 l 1
 48.525390625 402.544921875 l 1
 50.771484375 477.376953125 l 1
 140.796875 480.015625 l 1
 143.15625 663.83984375 l 1
 154.970703125 673.966796875 l 1
 188.7265625 697.595703125 l 1
 204.578125 706.654296875 l 1
 206.681640625 709.3984375 l 1
 247.1875 729.65234375 l 1
 316.5703125 735.55859375 l 1
371.076171875 468.2578125 m 1
 405.67578125 461.5078125 l 1
 441.119140625 446.318359375 l 1
 464.74609375 424.376953125 l 1
 482.46875 403.279296875 l 1
 452.931640625 401.591796875 l 1
 451.244140625 331.900390625 l 1
 386.88671875 325.28125 l 1
 372.541015625 349.75390625 l 1
 337.94140625 370.8515625 l 1
 293.59765625 380.259765625 l 1
 290.220703125 403.888671875 l 1
 373.123046875 403.470703125 l 1
 371.076171875 468.2578125 l 1
217.232421875 432.892578125 m 1
 215.544921875 405.044921875 l 1
 190.228515625 404.201171875 l 1
 217.232421875 432.892578125 l 1
EndSplineSet
EndChar

StartChar: seven
Encoding: 55 55 46
Width: 622
Flags: HW
LayerCount: 2
Fore
SplineSet
61.234375 746.982421875 m 1
 568.15234375 743.40234375 l 1
 568.15234375 655.087890625 l 1
 544.283203125 657.474609375 l 1
 543.08984375 723.11328125 l 1
 86.849609375 725.50390625 l 1
 92.81640625 646.73828125 l 1
 398.962890625 649.125 l 1
 403.736328125 620.482421875 l 1
 130.8203125 619.923828125 l 1
 69.955078125 618.73046875 l 1
 61.234375 746.982421875 l 1
365.25 566.44921875 m 1
 497.720703125 565.255859375 l 1
 467.884765625 521.099609375 l 1
 440.435546875 480.5234375 l 1
 374.796875 476.943359375 l 1
 373.603515625 401.755859375 l 1
 414.1796875 401.755859375 l 1
 397.47265625 359.986328125 l 1
 390.884765625 321.33984375 l 1
 374.17578125 316.56640625 l 1
 381.3359375 241.37890625 l 1
 363.435546875 192.44921875 l 1
 355.08203125 150.6796875 l 1
 243.048828125 146.845703125 l 1
 233.36328125 46.75 l 1
 356.580078125 53.44921875 l 1
 353 26 l 1
 208.59375 27.1953125 l 1
 214.89453125 145.880859375 l 1
 211.560546875 145.767578125 l 1
 228.5 233.8515625 l 1
 290.55859375 236.23828125 l 1
 282.90234375 419.658203125 l 1
 317.513671875 488.876953125 l 1
 347.34765625 528.259765625 l 1
 365.25 566.44921875 l 1
EndSplineSet
EndChar

StartChar: eight
Encoding: 56 56 47
Width: 591
Flags: HW
LayerCount: 2
Fore
SplineSet
367.111328125 767.419921875 m 5
 410.07421875 751.90625 l 5
 394.560546875 730.423828125 l 5
 356.37109375 745.9375 l 5
 251.814453125 742.357421875 l 5
 190.1171875 716.673828125 l 5
 148.34765625 673.708984375 l 5
 140.89453125 657.740234375 l 5
 268.169921875 662.830078125 l 5
 237.140625 637.767578125 l 5
 224.013671875 611.513671875 l 5
 220.43359375 579.291015625 l 5
 103.4765625 584.064453125 l 5
 104.671875 627.02734375 l 5
 118.103515625 655.01171875 l 5
 116.98046875 656.431640625 l 5
 144.4296875 698.201171875 l 5
 194.552734375 742.357421875 l 5
 249.451171875 761.453125 l 5
 367.111328125 767.419921875 l 5
489.193359375 661.462890625 m 5
 496.353515625 650.72265625 l 5
 509.48046875 608.951171875 l 5
 505.900390625 580.30859375 l 5
 502.447265625 580.38671875 l 5
 492.0078125 522.98046875 l 5
 438.3046875 465.6953125 l 5
 386.109375 421.3828125 l 5
 418.58984375 420.9921875 l 5
 479.455078125 374.447265625 l 5
 502.130859375 342.224609375 l 5
 325.501953125 337.451171875 l 5
 301.634765625 357.740234375 l 5
 252.703125 375.640625 l 5
 249.201171875 412.2890625 l 5
 103.42578125 303.517578125 l 5
 102.73828125 262.943359375 l 5
 187.470703125 255.783203125 l 5
 187.470703125 228.333984375 l 5
 214.919921875 181.7890625 l 5
 250.72265625 145.986328125 l 5
 249.62890625 60.486328125 l 5
 362.07421875 60.486328125 l 5
 422.939453125 83.162109375 l 5
 464.708984375 110.609375 l 5
 486.19140625 132.091796875 l 5
 504.091796875 130.8984375 l 5
 487.384765625 110.609375 l 5
 448 76 l 5
 401.45703125 60.486328125 l 5
 365.654296875 44.97265625 l 5
 249.431640625 44.97265625 l 5
 249.40625 42.99609375 l 5
 176.607421875 76.412109375 l 5
 174.060546875 173.513671875 l 5
 82.166015625 177.09375 l 5
 72.619140625 257.052734375 l 5
 83.359375 302.404296875 l 5
 103.931640625 333.35546875 l 5
 103.83984375 327.908203125 l 5
 156.50390625 379.751953125 l 5
 213.263671875 420.578125 l 5
 191.0546875 420.115234375 l 5
 179.12109375 429.6640625 l 5
 138.544921875 466.66015625 l 5
 115.869140625 501.26953125 l 5
 249.123046875 503.337890625 l 5
 283.732421875 483.048828125 l 5
 319.53515625 468.728515625 l 5
 319.53515625 422.185546875 l 5
 363.048828125 421.662109375 l 5
 426.787109375 479.80859375 l 5
 475.716796875 532.3203125 l 5
 482.0078125 580.8515625 l 5
 396.544921875 582.796875 l 5
 389.77734375 606.244140625 l 5
 379.037109375 633.693359375 l 5
 344.427734375 661.142578125 l 5
 489.193359375 661.462890625 l 5
248.33984375 421.30859375 m 5
 239.033203125 421.115234375 l 5
 248.84765625 415.994140625 l 5
 248.33984375 421.30859375 l 5
399.974609375 263.818359375 m 5
 534.49609375 261.431640625 l 5
 532.109375 211.30859375 l 5
 527.3359375 175.505859375 l 5
 384.32421875 176.234375 l 5
 398.78125 188.6328125 l 5
 407.134765625 220.85546875 l 5
 399.974609375 263.818359375 l 5
EndSplineSet
EndChar

StartChar: nine
Encoding: 57 57 48
Width: 573
Flags: HW
LayerCount: 2
Fore
SplineSet
259.09765625 743.8125 m 1
 259.09765625 743.8125 334.283203125 733.0703125 339.056640625 733.0703125 c 0
 343.830078125 733.0703125 382.01953125 703.234375 382.01953125 703.234375 c 1
 432.34375 650.525390625 l 1
 466.306640625 572.30859375 l 1
 468.962890625 572.2578125 l 1
 494.15625 491.642578125 l 1
 490.55078125 491.697265625 l 1
 496.7890625 469.123046875 l 1
 498.904296875 407.7890625 l 1
 504.04296875 407.908203125 l 1
 499.26953125 387.619140625 l 1
 496.8828125 325.560546875 l 1
 470.626953125 327.947265625 l 1
 477.787109375 259.921875 l 1
 464.66015625 208.60546875 l 1
 446.646484375 168.57421875 l 1
 446.73046875 168.568359375 l 1
 446.52734375 168.3125 l 1
 443.177734375 160.8671875 l 1
 440.666015625 160.88671875 l 1
 410.927734375 123.21875 l 1
 384.671875 88.609375 l 1
 325 54 l 1
 288.00390625 37.291015625 l 1
 240.267578125 31.32421875 l 1
 169.91796875 36.09765625 l 1
 103.439453125 59.384765625 l 1
 52.12109375 105.927734375 l 1
 79.154296875 141.119140625 l 1
 92.28125 127.9921875 l 1
 76.767578125 112.4765625 l 1
 104.21484375 87.416015625 l 1
 149.56640625 65.93359375 l 1
 182.982421875 50.41796875 l 1
 224.751953125 48.03125 l 1
 282.037109375 52.806640625 l 1
 325 74.287109375 l 1
 381.091796875 107.703125 l 1
 406.15234375 137.5390625 l 1
 420.9453125 161.033203125 l 1
 301.927734375 161.91796875 l 1
 351.962890625 251.798828125 l 1
 404.47265625 252.9921875 l 1
 400.21484375 405.51953125 l 1
 484.896484375 407.466796875 l 1
 486.3671875 436.16015625 l 1
 474.728515625 491.935546875 l 1
 370.310546875 493.51171875 l 1
 343.056640625 574.64453125 l 1
 450.748046875 572.603515625 l 1
 439.212890625 606.412109375 l 1
 406.990234375 662.50390625 l 1
 338.96484375 720.982421875 l 1
 264.970703125 734.109375 l 1
 194.55859375 729.3359375 l 1
 143.2421875 701.88671875 l 1
 128.919921875 710.240234375 l 1
 187.490234375 739.037109375 l 1
 259.09765625 743.8125 l 1
226.76171875 643.3125 m 1
 216.021484375 634.95703125 l 1
 176.63671875 599.154296875 l 1
 170.669921875 559.771484375 l 1
 68.220703125 560.73828125 l 1
 58.669921875 544.85546875 l 1
 56.283203125 475.63671875 l 1
 81.39453125 406.578125 l 1
 113.5390625 405.86328125 l 1
 113.5390625 337.837890625 l 1
 96.83203125 350.96484375 l 1
 75.349609375 379.607421875 l 1
 59.92578125 406.8984375 l 1
 58.796875 407.3515625 l 1
 40.89453125 472.990234375 l 1
 39.701171875 554.142578125 l 1
 44.958984375 566.09375 l 1
 50.134765625 599.64453125 l 1
 68.03515625 639.732421875 l 1
 226.76171875 643.3125 l 1
277.169921875 641.654296875 m 1
 333.259765625 640.4609375 l 1
 330.873046875 601.078125 l 1
 311.779296875 618.98046875 l 1
 277.169921875 641.654296875 l 1
183.953125 436.892578125 m 1
 197.080078125 420.18359375 l 1
 226.916015625 398.703125 l 1
 261.525390625 392.734375 l 1
 263.0625 318.646484375 l 1
 299.0546875 337.767578125 l 1
 359.91796875 389.083984375 l 1
 371.853515625 377.150390625 l 1
 370.966796875 376.375 l 1
 382.17578125 376.64453125 l 1
 375.611328125 330.697265625 l 1
 363.080078125 332.486328125 l 1
 369.24609375 374.8671875 l 1
 343.2109375 352.087890625 l 1
 313.375 329.4140625 l 1
 265.638671875 304.3515625 l 1
 263.22265625 310.994140625 l 1
 263.3828125 303.259765625 l 1
 210.87109375 302.06640625 l 1
 167.908203125 306.83984375 l 1
 129.71875 330.708984375 l 1
 183.953125 328.291015625 l 1
 183.953125 436.892578125 l 1
120.025390625 189.607421875 m 1
 149.861328125 168.72265625 l 1
 180.29296875 155.595703125 l 1
 204.162109375 153.8046875 l 1
 237.578125 153.8046875 l 1
 239.369140625 146.046875 l 1
 186.857421875 144.2578125 l 1
 160.6015625 147.837890625 l 1
 136.13671875 165.142578125 l 1
 120.025390625 189.607421875 l 1
116.150390625 185.27734375 m 1
 118.537109375 163.794921875 l 1
 99.44140625 163.794921875 l 1
 116.150390625 185.27734375 l 1
EndSplineSet
EndChar

StartChar: exclam
Encoding: 33 33 49
Width: 306
Flags: HW
LayerCount: 2
Fore
SplineSet
217.443359375 737.359375 m 1
 199.0625 496.908203125 l 1
 198.28515625 475.97265625 l 1
 202.6171875 475.80859375 l 1
 188.814453125 275.248046875 l 1
 132.72265625 277.634765625 l 1
 136.302734375 328.951171875 l 1
 90.953125 328.951171875 l 1
 93.8984375 403.009765625 l 1
 130.89453125 400.623046875 l 1
 139.365234375 478.1953125 l 1
 175.53125 476.830078125 l 1
 199.9140625 719.640625 l 1
 87.732421875 722.02734375 l 1
 86.7421875 602.513671875 l 1
 74.806640625 600.126953125 l 1
 73.423828125 736.806640625 l 1
 217.443359375 737.359375 l 1
125.419921875 215.080078125 m 1
 164.8046875 209.11328125 l 1
 218.5078125 191.212890625 l 1
 218.5078125 168.537109375 l 1
 134.96875 166.150390625 l 1
 129 48 l 1
 97.97265625 51.58203125 l 1
 63.36328125 79.029296875 l 1
 49.041015625 111.251953125 l 1
 53.814453125 157.796875 l 1
 78.876953125 188.826171875 l 1
 125.419921875 215.080078125 l 1
EndSplineSet
EndChar

StartChar: less
Encoding: 60 60 50
Width: 616
Flags: HW
LayerCount: 2
Fore
SplineSet
511.064453125 557.357421875 m 1
 507.783203125 490.859375 l 1
 510.08984375 457.708984375 l 1
 453.05859375 441.685546875 l 1
 451.865234375 453.0234375 l 1
 495.931640625 466.80859375 l 1
 495.931640625 484.7578125 l 1
 456.85546875 482.916015625 l 1
 456.2578125 523.494140625 l 1
 396.369140625 495.19921875 l 1
 394.71875 418.818359375 l 1
 371.177734375 413.05859375 l 1
 329.666015625 414.0234375 l 1
 330.26171875 394.33203125 l 1
 218.1484375 363.77734375 l 1
 239.630859375 352.439453125 l 1
 138.224609375 353.42578125 l 1
 137.03125 306.90234375 l 1
 106.498046875 318.494140625 l 1
 108.13671875 399.92578125 l 1
 146.2890625 417.7265625 l 1
 261.052734375 418.896484375 l 1
 261.6484375 463.052734375 l 1
 396.693359375 510.228515625 l 1
 396.662109375 508.7421875 l 1
 511.064453125 557.357421875 l 1
263.65625 341.5703125 m 1
 329.271484375 317.400390625 l 1
 327.48046875 282.193359375 l 1
 429.4765625 281.755859375 l 1
 453.94140625 276.384765625 l 1
 453 204 l 1
 500.595703125 179.494140625 l 1
 498.806640625 260.6484375 l 1
 510.14453125 260.6484375 l 1
 508.326171875 165.76953125 l 1
 452.83984375 191.7265625 l 1
 452.794921875 188.208984375 l 1
 209.310546875 283.16796875 l 1
 257.939453125 282.921875 l 1
 263.65625 341.5703125 l 1
EndSplineSet
EndChar

StartChar: greater
Encoding: 62 62 51
Width: 612
Flags: HW
LayerCount: 2
Fore
SplineSet
113.169921875 586.6875 m 1
 419.96484375 466.87109375 l 1
 419.970703125 468.412109375 l 1
 517.2109375 431.59765625 l 1
 516.12890625 383.244140625 l 1
 485.75 381.556640625 l 1
 487 338 l 1
 419.4296875 312.861328125 l 1
 419.919921875 453.71875 l 1
 352.25 480.728515625 l 1
 352.212890625 406.658203125 l 1
 224.765625 453.248046875 l 1
 228.638671875 530.06640625 l 1
 124.42578125 571.662109375 l 1
 124.568359375 483.267578125 l 1
 112.873046875 485.89453125 l 1
 113.169921875 586.6875 l 1
359.875 376.041015625 m 1
 359.525390625 289.8515625 l 1
 289.236328125 261.822265625 l 1
 293.03515625 304.017578125 l 1
 237.693359375 305.876953125 l 1
 235.359375 242.58984375 l 1
 113.0546875 191.48828125 l 1
 114.171875 289.66796875 l 1
 124.720703125 290.93359375 l 1
 124.7578125 211.390625 l 1
 162.2578125 233.5390625 l 1
 162.0234375 304.484375 l 1
 359.875 376.041015625 l 1
EndSplineSet
EndChar

StartChar: at
Encoding: 64 64 52
Width: 704
Flags: HW
LayerCount: 2
Fore
SplineSet
481.681640625 682.2109375 m 1
 536.955078125 652.9453125 l 1
 566.84765625 625.45703125 l 1
 442.056640625 627.8515625 l 1
 425.6015625 636.712890625 l 1
 425.6015625 636.712890625 400.286132812 639.666015625 396.48828125 639.666015625 c 2
 332.984375 639.666015625 l 1
 305.74609375 627.208984375 l 1
 175.82421875 625.564453125 l 1
 179.200195312 627.673828125 216.71484375 654.931640625 216.71484375 654.931640625 c 1
 251.314453125 671.810546875 l 1
 278.1171875 682.078125 l 1
 481.681640625 682.2109375 l 1
568.79296875 623.462890625 m 1
 582.6875 601.73828125 l 1
 609.21484375 565.1328125 l 1
 624.103515625 514.56640625 l 1
 577.431640625 514.646484375 l 1
 585.19921875 483.578125 l 1
 588.64453125 440.62890625 l 1
 589.48828125 411.091796875 l 1
 585.69140625 379.025390625 l 1
 578.095703125 355.818359375 l 1
 567.521484375 340.28515625 l 1
 567.4375 284.845703125 l 1
 586.001953125 285.267578125 l 1
 573.5 272.044921875 l 1
 552.615234375 257.77734375 l 1
 520.546875 239.6328125 l 1
 520.96875 280.5625 l 1
 466.267578125 280.298828125 l 1
 464.603515625 230.263671875 l 1
 464.603515625 230.263671875 458.697265625 231.529296875 457.009765625 231.529296875 c 0
 455.322265625 231.529296875 436.78125 236.05078125 436.78125 236.05078125 c 1
 417.373046875 247.865234375 l 1
 416.529296875 282.88671875 l 1
 394.166015625 284.99609375 l 1
 390.369140625 290.904296875 l 1
 384.0390625 283.73046875 l 1
 363.365234375 284.57421875 l 1
 363.365234375 259.2578125 l 1
 341.533203125 246.64453125 l 1
 314.578125 236.587890625 l 1
 313.3125 282.158203125 l 1
 223.1015625 282.849609375 l 1
 216.365234375 301.20703125 l 1
 205.927734375 327.01953125 l 1
 208.037109375 351.4921875 l 1
 208.037109375 377.65234375 l 1
 216.44140625 413.328125 l 1
 233.7578125 443.1328125 l 1
 250.6171875 478.50390625 l 1
 259.056640625 483.14453125 l 1
 258.521484375 342.16015625 l 1
 272 343.626953125 l 1
 271.451171875 367.533203125 l 1
 271.451171875 367.533203125 277.78125 404.96484375 278.203125 407.07421875 c 0
 278.625 409.18359375 288.330078125 426.904296875 288.330078125 426.904296875 c 1
 315.333984375 459.39453125 l 1
 340.228515625 471.208984375 l 1
 362.322265625 473.09375 l 1
 362.28125 513.80078125 l 1
 315.701171875 511.9609375 l 1
 315.279296875 519.9765625 l 1
 334.814453125 525.779296875 l 1
 370.904296875 526.623046875 l 1
 391.740234375 519.966796875 l 1
 403.1328125 504.775390625 l 1
 410.728515625 493.3828125 l 1
 417.900390625 498.025390625 l 1
 417.478515625 457.51953125 l 1
 452.033203125 456.974609375 l 1
 459.44140625 485.26953125 464.786132812 505.743164062 466.63671875 512.8671875 c 1
 418.517578125 513.462890625 l 1
 424.65625 525.744140625 l 1
 480.724609375 524.986328125 l 1
 476.083984375 512.75 l 1
 475.14453125 512.76171875 l 1
 463.658203125 456.791015625 l 1
 471.06640625 456.673828125 l 1
 458.521484375 400.396484375 l 1
 452.08984375 400.423828125 l 1
 440.755859375 345.1953125 l 1
 443.53515625 345.205078125 l 1
 442.69140625 323.6875 l 1
 452.818359375 303.43359375 l 1
 472.228515625 293.306640625 l 1
 509.333984375 295.630859375 l 1
 530.638671875 312.90625 l 1
 559.330078125 345.818359375 l 1
 567.564453125 369.234375 l 1
 567.5625 367.298828125 l 1
 570.779296875 378.5859375 l 1
 575.419921875 403.05859375 l 1
 574.998046875 450.845703125 l 1
 573.310546875 474.052734375 l 1
 568.248046875 501.056640625 l 1
 564.595703125 514.66796875 l 1
 562.615234375 514.671875 l 1
 555.15234375 540.236328125 l 1
 541.228515625 559.64453125 l 1
 529.576171875 571.546875 l 1
 566.70703125 570.703125 l 1
 568.79296875 623.462890625 l 1
151.78515625 604.271484375 m 1
 151.78515625 604.271484375 151.20703125 509.87109375 151.20703125 511.98046875 c 0
 151.20703125 514.08984375 164.287109375 515.77734375 164.287109375 515.77734375 c 1
 146.9921875 483.82421875 l 1
 138.130859375 457.6640625 l 1
 135.587890625 457.59765625 l 1
 129.009765625 437.865234375 l 1
 122.6796875 393.703125 l 1
 120.234375 354.0703125 l 1
 120.482421875 340.7265625 l 1
 123.552734375 340.59375 l 1
 123.130859375 331.3125 l 1
 124.859375 303.642578125 l 1
 132.48046875 283.763671875 l 1
 129.640625 283.814453125 l 1
 136.11328125 255.8984375 l 1
 153.2890625 225.095703125 l 1
 173.958984375 198.876953125 l 1
 195.900390625 176.513671875 l 1
 228.1640625 157.7578125 l 1
 252.63671875 147.208984375 l 1
 250.103515625 140.458984375 l 1
 204.22265625 161.353515625 l 1
 178.484375 181.607421875 l 1
 145.966796875 220.5390625 l 1
 145.966796875 220.5390625 125.599609375 256.435546875 124.333984375 258.123046875 c 0
 123.442382812 259.3125 118.90234375 273.807617188 115.73046875 284.060546875 c 1
 57.595703125 285.08984375 l 1
 51.689453125 318.001953125 l 1
 50.845703125 343.740234375 l 1
 104.759765625 341.40625 l 1
 105.103515625 363.15234375 l 1
 107.771484375 404.009765625 l 1
 114.9453125 438.076171875 l 1
 122.6875 457.263671875 l 1
 103.78515625 456.775390625 l 1
 104.20703125 512.140625 l 1
 92.625 515.525390625 l 1
 104.439453125 542.951171875 l 1
 132.376953125 581.064453125 l 1
 151.78515625 604.271484375 l 1
362.328125 466.32421875 m 1
 344.44140625 464.66015625 l 1
 323.04296875 457.02734375 l 1
 308.697265625 438.884765625 l 1
 287.119140625 412.6015625 l 1
 277.8359375 381.37890625 l 1
 274.8828125 355.21875 l 1
 276.373046875 344.1015625 l 1
 277.931640625 344.271484375 l 1
 281.306640625 324.439453125 l 1
 296.865234375 304.232421875 l 1
 314.00390625 300.8203125 l 1
 335.9453125 302.0859375 l 1
 353.23046875 309.330078125 l 1
 370.298828125 325.615234375 l 1
 378.35546875 344.984375 l 1
 422.28125 345.1328125 l 1
 426.028320312 358.654296875 431.250976562 378.112304688 437.177734375 400.48828125 c 1
 386.421875 400.708984375 l 1
 394.396484375 437.482421875 l 1
 391.443359375 447.1875 l 1
 378.78515625 463.220703125 l 1
 362.330078125 464.908203125 l 1
 362.328125 466.32421875 l 1
450.517578125 164.8515625 m 1
 470.23828125 111.23828125 l 1
 447 94 l 1
 424.21484375 85.560546875 l 1
 398.4765625 79.232421875 l 1
 361.828125 72.443359375 l 1
 320.201171875 71.599609375 l 1
 288.556640625 75.396484375 l 1
 247.7734375 80.724609375 l 1
 197.052734375 100.6484375 l 1
 173.423828125 117.10546875 l 1
 256.01953125 115.640625 l 1
 255.59765625 89.48046875 l 1
 285.556640625 82.306640625 l 1
 312.560546875 80.197265625 l 1
 313.416015625 132.013671875 l 1
 364.048828125 132.435546875 l 1
 363.205078125 81.802734375 l 1
 386.357421875 86.658203125 l 1
 418.255859375 92.98828125 l 1
 419.521484375 115.771484375 l 1
 416.990234375 147.41796875 l 1
 415.498046875 149.240234375 l 1
 432.375 154.724609375 l 1
 450.517578125 164.8515625 l 1
EndSplineSet
EndChar

StartChar: asciitilde
Encoding: 126 126 53
Width: 650
Flags: HW
LayerCount: 2
Fore
SplineSet
278.439453125 522.994140625 m 1
 278.84765625 518.9140625 l 1
 290.01171875 516.681640625 l 1
 315.671875 499.376953125 l 1
 343.12109375 477.89453125 l 1
 356.1796875 462.224609375 l 1
 356.189453125 466.826171875 l 1
 373.06640625 450.79296875 l 1
 399.228515625 439.822265625 l 1
 425.388671875 439.822265625 l 1
 459.142578125 451.63671875 l 1
 480.240234375 465.138671875 l 1
 497.9609375 505.64453125 l 1
 574.20703125 444.279296875 l 1
 559.017578125 421.494140625 l 1
 426.376953125 419.169921875 l 1
 423 342 l 1
 386.712890625 337.78125 l 1
 365.6171875 351.283203125 l 1
 359.2734375 356.001953125 l 1
 360.205078125 353.595703125 l 1
 302.54296875 393.48046875 l 1
 272.109375 418.54296875 l 1
 239.05859375 428.6875 l 1
 205.044921875 425.107421875 l 1
 204.244140625 425.75390625 l 1
 204.248046875 421.443359375 l 1
 178.087890625 391.908203125 l 1
 145.33203125 359.95703125 l 1
 77.671875 416.26953125 l 1
 83.765625 418.30078125 l 1
 84.609375 425.052734375 l 1
 128.4921875 423.365234375 l 1
 128.4921875 473.154296875 l 1
 158.87109375 505.220703125 l 1
 196.5390625 522.150390625 l 1
 278.439453125 522.994140625 l 1
204.177734375 508.6484375 m 1
 204.236328125 435.677734375 l 1
 209.5625 436.26953125 l 1
 209.5625 436.26953125 246.903320312 438.65625 249.88671875 438.65625 c 0
 252.870117188 438.65625 272.5625 429.705078125 272.5625 429.705078125 c 1
 306.57421875 401.064453125 l 1
 353.044921875 372.09375 l 1
 355.96875 364.541015625 l 1
 356.14453125 445.87890625 l 1
 307.9375 475.724609375 l 1
 274.521484375 505.55859375 l 1
 274.3984375 506.30859375 l 1
 204.177734375 508.6484375 l 1
EndSplineSet
EndChar

StartChar: bar
Encoding: 124 124 54
Width: 222
Flags: HW
LayerCount: 2
Fore
SplineSet
46.103515625 786.92578125 m 1
 131.353515625 783.486328125 l 1
 131.352539062 783.506835938 131.333984375 784.130859375 131.333984375 784.130859375 c 1
 156.650390625 783.287109375 l 1
 157.580078125 630.431640625 l 1
 157.435546875 630.4296875 l 1
 156.505859375 371.4453125 l 1
 135.408203125 373.9765625 l 1
 137.166015625 630.23828125 l 1
 59.4921875 629.501953125 l 1
 59.990234375 344.837890625 l 1
 138.193359375 344.1328125 l 1
 137.318359375 172.314453125 l 1
 58.70703125 173.154296875 l 1
 56.03125 41.48046875 l 1
 149.333984375 42.669921875 l 1
 151.021484375 147.458984375 l 1
 166.2109375 147.458984375 l 1
 163 28 l 1
 44.85546875 27.15625 l 1
 44.73046875 173.3046875 l 1
 44.111328125 173.310546875 l 1
 44.619140625 344.9765625 l 1
 46.55859375 344.958984375 l 1
 46.95703125 685.669921875 l 1
 46.95703125 685.669921875 127.958007812 682.9140625 131.333984375 682.0703125 c 0
 134.005859375 681.40234375 132.49609375 743.891601562 131.73046875 770.73828125 c 1
 46.103515625 772.580078125 l 1
 46.103515625 786.92578125 l 1
EndSplineSet
EndChar

StartChar: braceleft
Encoding: 123 123 55
Width: 376
Flags: HW
LayerCount: 2
Fore
SplineSet
210.46875 795.060546875 m 1
 284.77734375 793.919921875 l 1
 284.1796875 739.021484375 l 1
 272.24609375 739.619140625 l 1
 244.796875 733.65234375 l 1
 223.314453125 718.734375 l 1
 211.380859375 691.28515625 l 1
 217.16796875 652.4921875 l 1
 215.27734375 652.544921875 l 1
 219.34765625 589.392578125 l 1
 221.267578125 589.357421875 l 1
 217.193359375 529.833984375 l 1
 217.193359375 529.833984375 215.372070312 529.837890625 215.287109375 529.837890625 c 1
 218.580078125 509.134765625 l 1
 215.59765625 481.685546875 l 1
 202.46875 454.83203125 l 1
 192.921875 441.107421875 l 1
 162.490234375 432.158203125 l 1
 153.693359375 425.150390625 l 1
 166.224609375 422.763671875 l 1
 185.318359375 417.39453125 l 1
 202.02734375 395.912109375 l 1
 215.751953125 370.849609375 l 1
 206.203125 369.060546875 l 1
 193.076171875 389.9453125 l 1
 172.19140625 409.0390625 l 1
 141.162109375 420.974609375 l 1
 142.35546875 436.48828125 l 1
 169.20703125 444.841796875 l 1
 193.80078125 465.04296875 l 1
 206.33203125 488.912109375 l 1
 201.837890625 529.861328125 l 1
 181.587890625 529.877929688 134.536132812 529.943359375 131.1328125 530.4296875 c 2
 134.375 562.453125 l 1
 124.826171875 591.095703125 l 1
 208.76953125 589.58203125 l 1
 199.63671875 652.98828125 l 1
 126.33984375 655.0625 l 1
 121.728515625 677.8828125 l 1
 126.501953125 715.474609375 l 1
 137.728515625 751.109375 l 1
 156.2265625 770.80078125 l 1
 153.83984375 716.3984375 l 1
 210.70703125 716.294921875 l 1
 222.640625 730.615234375 l 1
 247.10546875 747.919921875 l 1
 270.974609375 748.517578125 l 1
 272.16796875 783.72265625 l 1
 211.662109375 784.3203125 l 1
 210.46875 795.060546875 l 1
96.13671875 469.666015625 m 1
 97.248046875 400.939453125 l 1
 111.1171875 396.203125 l 1
 136.1796875 374.72265625 l 1
 144.533203125 346.67578125 l 1
 144.533203125 346.67578125 144.918945312 339.403320312 145.25390625 332.55078125 c 1
 221.416015625 334.201171875 l 1
 215.44921875 269.375 l 1
 214.04296875 269.39453125 l 1
 209.9765625 208.978515625 l 1
 210.248046875 204.103515625 l 1
 210.666015625 204.1015625 l 1
 211.294921875 185.25390625 l 1
 213.556640625 144.53515625 l 1
 213.556640625 144.53515625 227.877929688 119.471679688 230.861328125 118.875 c 0
 233.844726562 118.278320312 265.470703125 115.892578125 265.470703125 115.892578125 c 1
 284.56640625 116.48828125 l 1
 283.5390625 77.47265625 l 1
 283.806640625 77.482421875 l 1
 285 56 l 1
 223.71484375 54.87890625 l 1
 193.87890625 63.232421875 l 1
 170.07421875 73.0859375 l 1
 273.796875 77.095703125 l 1
 271.4375 106.34375 l 1
 234.44140625 107.537109375 l 1
 211.169921875 122.455078125 l 1
 201.951171875 150.625 l 1
 128.0078125 152.232421875 l 1
 127.232421875 204.349609375 l 1
 199.912109375 204.1328125 l 1
 203.412109375 253.732421875 l 1
 204.11328125 269.533203125 l 1
 129.5234375 270.568359375 l 1
 132.041015625 321.314453125 l 2
 132.040039062 321.314453125 132.00390625 321.322265625 132.00390625 321.322265625 c 1
 131.40625 348.771484375 l 1
 117.681640625 370.849609375 l 1
 97.455078125 388.06640625 l 1
 97.5 385.314453125 l 1
 83.775390625 394.265625 l 1
 53.34375 396.0546875 l 1
 52.576171875 462.50390625 l 1
 86.587890625 460.71484375 l 1
 96.13671875 469.666015625 l 1
EndSplineSet
EndChar

StartChar: braceright
Encoding: 125 125 56
Width: 410
Flags: HW
LayerCount: 2
Fore
SplineSet
84.8544921875 110.654296875 m 1
 85.24609375 102.099609375 l 1
 64.9580078125 101.502929688 l 1
 64.9580078125 59.876953125 l 1
 79.875 57.490234375 l 1
 153.018554688 66.427734375 l 1
 184.603515625 76.07421875 l 1
 183.97265625 193.314453125 l 1
 139.219726562 197.4921875 l 1
 136.6875 234.395507812 l 1
 128.930664062 264.231445312 l 1
 184.887695312 260.989257812 l 1
 181.807617188 388.499023438 l 1
 154.955078125 387.901367188 l 1
 146.004882812 390.885742188 l 1
 174.049804688 406.400390625 l 1
 202.379882812 414.9453125 l 1
 174.333984375 427.4765625 l 1
 151.061523438 437.024414062 l 1
 146.884765625 452.5390625 l 1
 186.5703125 455.299804688 l 1
 185.124023438 639.288085938 l 1
 135.530273438 638.146484375 l 1
 137.3203125 653.661132812 l 1
 131.1953125 696.044921875 l 1
 112.100585938 713.349609375 l 1
 83.4580078125 722.30078125 l 1
 57.81640625 723.494140625 l 1
 56.279296875 777.908203125 l 1
 116.407226562 777.068359375 l 1
 114.020507812 766.327148438 l 1
 71.056640625 768.1171875 l 1
 71.7177734375 731.594726562 l 1
 93.986328125 729.208007812 l 1
 120.2421875 720.256835938 l 1
 140.356445312 701.8828125 l 1
 183.115234375 702.184570312 l 1
 183.711914062 755.889648438 l 1
 189.083007812 758.873046875 l 1
 196.056640625 757.696289062 l 1
 217.5390625 740.98828125 l 1
 233.650390625 721.296875 l 1
 241.407226562 693.250976562 l 1
 248.44921875 641.499023438 l 1
 235.91796875 601.518554688 l 1
 236.514648438 573.088867188 l 1
 231.827148438 509.427734375 l 1
 234.810546875 481.978515625 l 1
 261.663085938 462.883789062 l 1
 282.58203125 449.99609375 l 1
 252.149414062 450.592773438 l 1
 248.372070312 377.107421875 l 1
 274.03125 389.638671875 l 1
 307.447265625 396.799804688 l 1
 307.447265625 396.799804688 307.447265625 449.310546875 303.8671875 451.697265625 c 0
 300.287109375 454.083984375 314.010742188 453.487304688 314.010742188 453.487304688 c 1
 313.08984375 387.177734375 l 1
 313.08984375 387.177734375 268.932617188 377.630859375 265.352539062 377.033203125 c 0
 261.771484375 376.436523438 246.2578125 365.696289062 246.2578125 365.696289062 c 1
 232.966796875 345.091796875 l 1
 234.3984375 284.036132812 l 1
 234.3984375 284.036132812 232.608398438 241.916015625 232.608398438 239.529296875 c 0
 232.608398438 237.142578125 246.9296875 203.7265625 246.9296875 203.7265625 c 1
 243.946289062 153.005859375 l 1
 236.188476562 131.524414062 l 1
 224.25390625 95.125 l 1
 197.999023438 70.6591796875 l 1
 182.272460938 62.5634765625 l 1
 159 56 l 1
 113.916015625 53.0712890625 l 1
 57.05859375 52.0634765625 l 1
 57.4052734375 110.057617188 l 1
 84.8544921875 110.654296875 l 1
EndSplineSet
EndChar

StartChar: parenleft
Encoding: 40 40 57
Width: 278
Flags: HW
LayerCount: 2
Fore
SplineSet
189.533203125 696.48828125 m 1
 221.755859375 681.248046875 l 1
 213.740234375 666.90234375 l 1
 199.931640625 637.974609375 l 1
 183.4765625 608.015625 l 1
 167.021484375 572.150390625 l 1
 162.80078125 562.869140625 l 1
 86.58203125 563.080078125 l 1
 71.751953125 521.880859375 l 1
 63.470703125 521.10546875 l 1
 79.109375 572.451171875 l 1
 100.62890625 619.708984375 l 1
 186.75390625 621.392578125 l 1
 189.533203125 696.48828125 l 1
128.947265625 509.361328125 m 1
 134.5625 282.4140625 l 1
 134.5625 282.4140625 133.096679688 282.4140625 133.03515625 282.4140625 c 1
 139.294921875 240.306640625 l 1
 148.24609375 197.341796875 l 1
 169.7265625 130.509765625 l 1
 179.87109375 114.99609375 l 1
 175.09765625 111.416015625 l 1
 149.98828125 155.228515625 l 1
 132.68359375 212.513671875 l 1
 121.76171875 282.419921875 l 1
 105.495117188 282.426757812 67.7060546875 282.443359375 64.603515625 282.443359375 c 1
 65.1640625 451.88671875 l 1
 44.068359375 452.30859375 l 1
 50.818359375 483.111328125 l 1
 58.4140625 508.849609375 l 1
 128.947265625 509.361328125 l 1
52.5859375 246.720703125 m 1
 63.978515625 245.03125 l 1
 96.453125 147.52734375 l 1
 128.15234375 84.091796875 l 1
 161.375 38.30859375 l 1
 190.234375 53.544921875 l 1
 190.65625 100.80078125 l 1
 223 50 l 1
 151.84765625 25.203125 l 1
 98.150390625 112.494140625 l 1
 75.705078125 167.20703125 l 1
 52.5859375 246.720703125 l 1
EndSplineSet
EndChar

StartChar: parenright
Encoding: 41 41 58
Width: 310
Flags: HWO
LayerCount: 2
Fore
SplineSet
119.318359375 723.375 m 1
 141.396484375 695.927734375 l 1
 181.9140625 620.505859375 l 1
 204.982421875 554.11328125 l 1
 220.375 514.01953125 l 1
 224.55078125 471.056640625 l 1
 231.7109375 416.017578125 l 1
 138.416015625 415.146484375 l 1
 138.734375 474.91015625 l 1
 219.513671875 473.46484375 l 1
 206.23046875 527.556640625 l 1
 181.169921875 528.154296875 l 1
 181.296875 605.48046875 l 1
 133.63671875 691.353515625 l 1
 76.72265625 693.529296875 l 1
 64.7890625 692.931640625 l 1
 101.5703125 629.216796875 l 1
 125.841796875 567.986328125 l 1
 140.162109375 505.927734375 l 1
 143.146484375 492.203125 l 1
 132.40625 491.607421875 l 1
 113.48828125 582.03125 l 1
 87.1328125 635.986328125 l 1
 50.794921875 699.154296875 l 1
 119.318359375 723.375 l 1
227.775390625 362.6796875 m 1
 228.96875 304.201171875 l 1
 179.876953125 301.814453125 l 1
 181.345703125 144.2734375 l 1
 154.494140625 92.95703125 l 1
 117 46 l 1
 48.32421875 67.712890625 l 1
 60.85546875 81.4375 l 1
 94.521484375 148.572265625 l 1
 102.279296875 143.201171875 l 1
 91.537109375 124.107421875 l 1
 70.458984375 78.919921875 l 1
 123.41015625 78.32421875 l 1
 119.03515625 222.529296875 l 1
 132.759765625 263.10546875 l 1
 138.130859375 303.68359375 l 1
 142.09765625 360.251953125 l 1
 227.775390625 362.6796875 l 1
EndSplineSet
EndChar
